<?xml version="1.0" encoding="utf-8"?>
<svg viewBox="0 0 900 900" xmlns="http://www.w3.org/2000/svg">
  <g id="g10" transform="matrix(3, 0, 0, -3, 0, 900)" style="">
    <g id="g12" transform="scale(0.1)">
      <path d="M 1500 3000 C 671.57 3000 0 2328.43 0 1500 C 0 671.57 671.57 0 1500 0 C 2328.43 0 3000 671.57 3000 1500 C 3000 2328.43 2328.43 3000 1500 3000 Z M 2454.59 545.41 C 2199.61 290.422 1860.6 150 1500 150 C 1139.4 150 800.387 290.422 545.406 545.41 C 290.426 800.391 150 1139.4 150 1500 C 150 1860.6 290.426 2199.61 545.406 2454.59 C 800.387 2709.57 1139.4 2850 1500 2850 C 1860.6 2850 2199.61 2709.57 2454.59 2454.59 C 2709.57 2199.61 2850 1860.6 2850 1500 C 2850 1139.4 2709.57 800.391 2454.59 545.41" style="fill-opacity: 1; fill-rule: nonzero; stroke: none;" id="path14"/>
      <title>Go icon</title>
      <title>Elixir icon</title>
      <title>R icon</title>
      <path d="M 1424.331 890.177 C 780.038 890.177 257.663 1220.571 257.663 1628.193 C 257.663 2035.816 780.038 2366.213 1424.331 2366.213 C 2068.621 2366.213 2590.997 2035.724 2590.997 1628.193 C 2590.997 1220.664 2068.621 890.177 1424.331 890.177 Z M 1602.929 2077.688 C 1113.123 2077.688 716.164 1851.794 716.164 1573.099 C 716.164 1294.4 1113.123 1068.598 1602.83 1068.598 C 2092.539 1068.598 2454.109 1223.05 2454.109 1573.099 C 2454.109 1923.144 2092.637 2077.688 1602.929 2077.688 Z M 2034.4 1223.143 C 2072.548 1212.295 2109.87 1199.011 2146.109 1183.382 C 2167.03 1173.619 2186.14 1160.719 2202.691 1145.181 C 2213.114 1134.737 2221.829 1122.882 2228.553 1110.011 L 2506.9 666.85 L 2057.052 666.667 L 1846.76 1039.762 C 1827.347 1072.275 1803.985 1102.537 1777.152 1129.939 C 1763.524 1144.28 1744.176 1152.601 1723.774 1152.895 L 1616.929 1152.895 L 1616.929 666.944 L 1218.998 666.85 L 1218.998 1907.9 L 2018.261 1907.9 C 2018.261 1907.9 2382.261 1901.748 2382.261 1574.567 C 2382.92 1388.98 2230.489 1234.99 2034.4 1223.143 Z M 1861.345 1638.754 L 1620.332 1638.845 L 1620.332 1427.826 L 1861.345 1427.826 C 1924.161 1427.064 1974.957 1475.957 1972.955 1535.265 C 1976.477 1594.518 1924.004 1643.173 1861.345 1638.754 Z" style=""/>
    </g>
  </g>
  <g transform="matrix(2.18986, 0, 0, 2.141408, 100, 100)" style=""/>
  <g transform="matrix(2.18986, 0, 0, 2.141408, 100, 100)" style=""/>
  <g transform="matrix(2.18986, 0, 0, 2.141408, 100, 100)" style=""/>
  <g transform="matrix(2.18986, 0, 0, 2.141408, 100, 100)" style=""/>
  <g transform="matrix(2.18986, 0, 0, 2.141408, 100, 100)" style=""/>
  <g transform="matrix(2.18986, 0, 0, 2.141408, 100, 100)" style=""/>
  <g transform="matrix(2.18986, 0, 0, 2.141408, 100, 100)" style=""/>
  <g transform="matrix(2.18986, 0, 0, 2.141408, 100, 100)" style=""/>
  <g transform="matrix(2.18986, 0, 0, 2.141408, 100, 100)" style=""/>
  <g transform="matrix(2.18986, 0, 0, 2.141408, 100, 100)" style=""/>
  <g transform="matrix(2.18986, 0, 0, 2.141408, 100, 100)" style=""/>
  <g transform="matrix(2.18986, 0, 0, 2.141408, 100, 100)" style=""/>
  <g transform="matrix(2.18986, 0, 0, 2.141408, 100, 100)" style=""/>
  <g transform="matrix(2.18986, 0, 0, 2.141408, 100, 100)" style=""/>
  <g transform="matrix(2.18986, 0, 0, 2.141408, 100, 100)" style=""/>
</svg>