<?xml version="1.0" encoding="utf-8"?>
<svg viewBox="0 0 900 900" xmlns="http://www.w3.org/2000/svg">
  <g id="g10" transform="matrix(3, 0, 0, -3, 0, 900)" style="">
    <g id="g12" transform="scale(0.1)">
      <path d="M 1500 3000 C 671.57 3000 0 2328.43 0 1500 C 0 671.57 671.57 0 1500 0 C 2328.43 0 3000 671.57 3000 1500 C 3000 2328.43 2328.43 3000 1500 3000 Z M 2454.59 545.41 C 2199.61 290.422 1860.6 150 1500 150 C 1139.4 150 800.387 290.422 545.406 545.41 C 290.426 800.391 150 1139.4 150 1500 C 150 1860.6 290.426 2199.61 545.406 2454.59 C 800.387 2709.57 1139.4 2850 1500 2850 C 1860.6 2850 2199.61 2709.57 2454.59 2454.59 C 2709.57 2199.61 2850 1860.6 2850 1500 C 2850 1139.4 2709.57 800.391 2454.59 545.41" style="fill-opacity: 1; fill-rule: nonzero; stroke: none; fill: rgb(255, 255, 255);" id="path14"/>
    </g>
  </g>
  <path d="M 236.175 776.214 C 367.688 776.214 636.581 735.232 665.919 695.103 L 665.919 540.16 C 638.169 578.282 367.665 618.94 236.175 618.94 L 236.175 776.214 Z M 236.175 569.745 C 367.688 569.745 636.581 528.764 665.919 488.633 L 665.919 333.813 C 638.169 371.833 367.665 412.491 236.175 412.491 L 236.175 569.745 Z M 236.175 363.378 C 367.688 363.378 636.581 322.396 665.919 282.267 L 665.919 127.324 C 638.169 165.344 367.665 206.002 236.175 206.002 L 236.175 363.378 Z" style="fill: rgb(255, 255, 255);"/>
</svg>