<?xml version="1.0" encoding="utf-8"?>
<svg viewBox="0 0 900 900" xmlns="http://www.w3.org/2000/svg">
  <g id="g10" transform="matrix(3, 0, 0, -3, 0, 900)" style="">
    <g id="g12" transform="scale(0.1)">
      <path d="M 1500 3000 C 671.57 3000 0 2328.43 0 1500 C 0 671.57 671.57 0 1500 0 C 2328.43 0 3000 671.57 3000 1500 C 3000 2328.43 2328.43 3000 1500 3000 Z M 2454.59 545.41 C 2199.61 290.422 1860.6 150 1500 150 C 1139.4 150 800.387 290.422 545.406 545.41 C 290.426 800.391 150 1139.4 150 1500 C 150 1860.6 290.426 2199.61 545.406 2454.59 C 800.387 2709.57 1139.4 2850 1500 2850 C 1860.6 2850 2199.61 2709.57 2454.59 2454.59 C 2709.57 2199.61 2850 1860.6 2850 1500 C 2850 1139.4 2709.57 800.391 2454.59 545.41" style="fill-opacity: 1; fill-rule: nonzero; stroke: none; fill: rgb(255, 255, 255);" id="path14"/>
      <title>Go icon</title>
      <title>Elixir icon</title>
      <title>R icon</title>
    </g>
  </g>
  <g transform="matrix(2.18986, 0, 0, 2.141408, 100, 100)" style=""/>
  <g transform="matrix(2.18986, 0, 0, 2.141408, 100, 100)" style=""/>
  <g transform="matrix(2.18986, 0, 0, 2.141408, 100, 100)" style=""/>
  <g transform="matrix(2.18986, 0, 0, 2.141408, 100, 100)" style=""/>
  <g transform="matrix(2.18986, 0, 0, 2.141408, 100, 100)" style=""/>
  <g transform="matrix(2.18986, 0, 0, 2.141408, 100, 100)" style=""/>
  <g transform="matrix(2.18986, 0, 0, 2.141408, 100, 100)" style=""/>
  <g transform="matrix(2.18986, 0, 0, 2.141408, 100, 100)" style=""/>
  <g transform="matrix(2.18986, 0, 0, 2.141408, 100, 100)" style=""/>
  <g transform="matrix(2.18986, 0, 0, 2.141408, 100, 100)" style=""/>
  <g transform="matrix(2.18986, 0, 0, 2.141408, 100, 100)" style=""/>
  <g transform="matrix(2.18986, 0, 0, 2.141408, 100, 100)" style=""/>
  <g transform="matrix(2.18986, 0, 0, 2.141408, 100, 100)" style=""/>
  <g transform="matrix(2.18986, 0, 0, 2.141408, 100, 100)" style=""/>
  <g transform="matrix(2.18986, 0, 0, 2.141408, 100, 100)" style=""/>
  <path d="M 781.253 499.904 L 698.671 481.057 C 706.165 423.072 692.64 364.318 660.548 315.444 L 724.048 264.81 L 692.873 225.711 L 629.391 276.319 C 588.492 234.253 534.063 207.963 475.686 202.077 L 475.686 125.808 L 425.686 125.808 L 425.686 202.077 C 367.309 207.965 312.88 234.258 271.981 276.328 L 208.498 225.711 L 177.322 264.808 L 240.821 315.442 C 208.73 364.317 195.206 423.072 202.7 481.057 L 120.12 499.917 L 131.253 548.647 L 213.687 529.823 C 232.448 585.608 270.224 633.022 320.406 663.772 L 287.157 732.85 L 332.201 754.543 L 365.436 685.512 C 420.447 705.905 480.946 705.905 535.957 685.512 L 569.186 754.543 L 614.231 732.836 L 580.98 663.772 C 631.164 633.022 668.939 585.608 687.701 529.823 L 770.134 548.635 L 781.253 499.904 Z M 650.686 450.807 C 650.686 457.24 650.316 463.587 649.721 469.875 L 524.72 441.335 C 524.088 436.279 522.935 431.3 521.281 426.48 L 621.186 346.807 C 640.452 378.078 650.665 414.079 650.686 450.807 Z M 425.686 450.807 C 425.686 431.563 446.52 419.534 463.186 429.157 C 479.853 438.779 479.853 462.835 463.186 472.457 C 459.386 474.652 455.074 475.807 450.687 475.807 C 436.884 475.796 425.698 464.609 425.686 450.807 Z M 590.082 307.668 L 490.186 387.329 C 485.615 384.511 480.754 382.192 475.686 380.41 L 475.686 252.54 C 518.806 257.959 558.976 277.316 590.082 307.668 Z M 425.686 252.54 L 425.686 380.41 C 420.619 382.192 415.758 384.511 411.186 387.329 L 311.298 307.668 C 342.401 277.317 382.567 257.96 425.686 252.54 Z M 250.686 450.807 C 250.708 414.079 260.92 378.078 280.186 346.807 L 380.091 426.473 C 378.437 431.293 377.284 436.271 376.65 441.328 L 251.651 469.867 C 251.056 463.587 250.686 457.24 250.686 450.807 Z M 262.774 518.617 L 387.154 490.212 C 390.093 495.06 393.57 499.56 397.519 503.628 L 342.171 618.557 C 305.539 594.767 277.664 559.68 262.774 518.617 Z M 450.687 650.808 C 429.09 650.772 407.642 647.226 387.186 640.307 L 442.701 525 C 445.346 525.411 448.012 525.681 450.687 525.808 C 453.357 525.681 456.018 525.413 458.661 525.003 L 514.186 640.307 C 493.73 647.233 472.282 650.779 450.687 650.808 Z M 559.202 618.557 L 503.854 503.617 C 507.802 499.55 511.279 495.049 514.219 490.202 L 638.598 518.608 C 623.71 559.675 595.834 594.764 559.202 618.557 Z" style="fill: rgb(255, 255, 255);"/>
  <rect id="_Transparent_Rectangle_" data-name="&lt;Transparent Rectangle&gt;" class="cls-1" width="800" height="800" style="fill: none;" y="60.148" x="43.806"/>
</svg>