<?xml version="1.0" encoding="utf-8"?>
<svg viewBox="0 0 900 900" xmlns="http://www.w3.org/2000/svg">
  <g id="g10" transform="matrix(3, 0, 0, -3, 0, 900)" style="">
    <g id="g12" transform="scale(0.1)">
      <path d="M 1500 3000 C 671.57 3000 0 2328.43 0 1500 C 0 671.57 671.57 0 1500 0 C 2328.43 0 3000 671.57 3000 1500 C 3000 2328.43 2328.43 3000 1500 3000 Z M 2454.59 545.41 C 2199.61 290.422 1860.6 150 1500 150 C 1139.4 150 800.387 290.422 545.406 545.41 C 290.426 800.391 150 1139.4 150 1500 C 150 1860.6 290.426 2199.61 545.406 2454.59 C 800.387 2709.57 1139.4 2850 1500 2850 C 1860.6 2850 2199.61 2709.57 2454.59 2454.59 C 2709.57 2199.61 2850 1860.6 2850 1500 C 2850 1139.4 2709.57 800.391 2454.59 545.41" style="fill-opacity: 1; fill-rule: nonzero; stroke: none; fill: rgb(255, 255, 255);" id="path14"/>
    </g>
  </g>
  <path d="M 587.815 154.687 C 611.353 154.687 631.517 156.424 651.084 163.447 C 709.954 184.574 727.145 205.318 724.698 238.083 C 723.863 249.288 721.015 266.846 716.341 287.206 L 532.502 196.574 C 527.152 178.928 519.866 165.716 504.251 156.211 C 537.269 156.211 564.277 154.687 587.815 154.687 Z M 462.468 170.299 C 479.779 169.85 494.129 173.654 504.651 182.485 C 546.738 217.805 508.49 318.371 419.099 406.778 C 329.703 495.184 222.837 538.058 180.745 502.738 C 138.654 467.418 177.302 366.853 266.692 278.447 C 333.737 212.142 410.547 171.648 462.468 170.299 Z M 725.89 291.773 L 694.459 689.331 L 328.77 713.326 L 427.057 669.152 L 558.767 569.76 L 661.028 447.525 L 719.526 333.665 L 725.89 291.773 Z M 714.749 294.821 C 705.223 332.893 687.413 380.86 655.856 425.438 C 631.952 459.207 594.729 499.789 555.187 537.773 C 509.772 581.392 461.552 621.772 426.259 645.542 C 364.039 687.44 310.404 712.832 263.513 715.606 L 347.072 505.787 L 555.187 537.773 L 507.035 352.704 L 714.749 294.821 Z M 149.709 514.546 C 149.709 514.546 151.726 526.052 171.196 535.109 L 259.532 715.606 C 257.985 715.656 256.685 715.606 255.156 715.606 C 206.241 715.606 166.767 704.1 152.092 659.631 C 137.421 615.161 149.709 514.546 149.709 514.546 Z" style="fill: rgb(255, 255, 255);" transform="matrix(1, 0, 0, 1, 2.149046, -3.419973)"/>
</svg>