<?xml version="1.0" encoding="utf-8"?>
<svg viewBox="0 0 900 900" xmlns="http://www.w3.org/2000/svg">
  <g id="g10" transform="matrix(3, 0, 0, -3, 0, 900)" style="">
    <g id="g12" transform="scale(0.1)">
      <path d="M 1500 3000 C 671.57 3000 0 2328.43 0 1500 C 0 671.57 671.57 0 1500 0 C 2328.43 0 3000 671.57 3000 1500 C 3000 2328.43 2328.43 3000 1500 3000 Z M 2454.59 545.41 C 2199.61 290.422 1860.6 150 1500 150 C 1139.4 150 800.387 290.422 545.406 545.41 C 290.426 800.391 150 1139.4 150 1500 C 150 1860.6 290.426 2199.61 545.406 2454.59 C 800.387 2709.57 1139.4 2850 1500 2850 C 1860.6 2850 2199.61 2709.57 2454.59 2454.59 C 2709.57 2199.61 2850 1860.6 2850 1500 C 2850 1139.4 2709.57 800.391 2454.59 545.41" style="fill-opacity: 1; fill-rule: nonzero; stroke: none;" id="path14"/>
      <title>Go icon</title>
    </g>
  </g>
  <path d="M 760.463 480.233 L 759.719 480.233 L 640.893 365.304 L 759.308 247.821 L 759.308 200.098 L 741.448 182.852 L 515.845 182.852 L 497.681 198.954 L 497.681 226.767 L 430.645 161.931 L 430.645 161.212 L 430.231 161.584 L 429.846 161.212 L 429.846 161.931 L 394.347 196.292 L 379.54 181.946 L 156.001 181.946 L 138.446 200.365 L 138.446 250.535 L 155.397 266.931 L 175.21 266.931 L 175.21 408.262 L 100.743 480.26 L 100 480.26 L 100.385 480.607 L 100 480.979 L 100.743 480.979 L 175.21 553.002 L 175.21 725.128 L 200.17 739.05 L 264.071 739.05 L 315.173 688.373 L 429.818 799.256 L 429.818 800 L 430.231 799.628 L 430.616 800 L 430.616 799.256 L 499.69 732.475 L 513.036 732.475 C 516.092 732.475 518.844 730.612 519.916 727.71 L 523.935 716.373 C 524.704 714.136 524.264 711.793 522.917 710.01 L 563.15 671.097 L 546.307 723.32 C 545.124 727.071 547.298 731.011 551.179 732.155 C 551.867 732.37 552.61 732.475 553.326 732.475 L 603.52 732.475 C 606.437 732.45 609.051 730.772 610.207 728.137 L 614.748 717.649 C 615.436 715.921 615.409 713.976 614.639 712.248 C 613.896 710.517 612.437 709.159 610.621 708.467 C 609.823 708.148 608.914 707.963 607.952 707.935 L 605.888 707.935 L 629.003 637.563 L 662.907 637.563 L 634.948 723.293 C 633.765 727.046 635.939 730.984 639.791 732.13 C 640.479 732.342 641.222 732.45 641.965 732.45 L 697.059 732.45 C 700.085 732.45 702.754 730.692 703.884 727.925 L 708.396 716.533 C 709.8 712.86 707.819 708.814 704.048 707.456 C 703.25 707.164 702.398 707.004 701.544 707.004 L 697.555 707.004 L 728.678 609.243 C 729.421 607.06 729.008 604.638 727.605 602.855 L 717.284 589.44 L 717.202 589.306 C 715.8 587.603 713.708 586.591 711.45 586.591 L 671.934 586.591 C 669.979 586.591 668.053 587.39 666.704 588.749 L 655.697 600.433 L 638.524 600.433 L 637.37 599.207 L 759.693 480.899 L 760.463 480.899 L 760.078 480.607 L 760.463 480.233 Z M 370.734 723.852 L 414.189 603.839 L 400.4 603.839 L 408.574 595.748 L 454.229 595.748 L 411.216 716.985 L 428.36 716.985 L 426.186 723.852 L 370.734 723.852 Z M 472.419 523.805 L 476.546 527.823 L 469.144 552.363 L 462.951 558.378 L 436.286 558.378 L 431.304 553.561 L 439.863 530.378 L 447.789 523.805 L 472.419 523.805 Z M 253.833 715.601 L 206.692 715.601 L 199.482 711.608 L 199.482 243.483 L 165.469 243.483 L 162.717 240.821 L 162.717 209.522 L 166.652 205.422 L 369.497 205.422 L 375.358 211.117 L 375.358 240.609 L 371.45 245.214 L 341.758 245.214 L 341.758 476.454 L 584.12 245.214 L 526.715 245.214 L 521.898 240.209 L 521.898 209.255 L 525.228 206.3 L 731.347 206.3 L 734.981 209.839 L 734.981 238.319 L 457.172 513.877 L 446.909 513.877 C 446.495 513.849 446.137 513.877 445.752 513.904 L 445.201 513.984 C 443.963 514.249 442.835 514.781 441.928 515.58 L 432.487 523.431 L 432.379 523.511 C 431.47 524.337 430.755 525.349 430.368 526.465 L 422.223 548.557 L 253.833 715.601 Z M 660.237 610.414 L 673.281 596.6 L 709.993 596.6 L 718.496 607.645 L 683.684 716.957 L 697.252 716.957 L 695.049 722.521 L 645.984 722.521 L 676.914 627.662 L 621.462 627.662 L 591.825 717.916 L 603.493 717.916 L 601.485 722.548 L 557.316 722.548 L 587.78 628.114 L 530.098 628.114 L 500.873 716.985 L 512.872 716.985 L 510.891 722.548 L 465.18 722.548 L 506.846 603.839 L 490.719 603.839 L 493.223 596.627 L 538.63 596.627 L 552.913 610.919 L 577.846 610.919 L 591.356 596.173 L 620.555 596.173 L 634.012 610.414 L 660.237 610.414 Z" style=""/>
</svg>