<?xml version="1.0" encoding="utf-8"?>
<svg viewBox="0 0 900 900" xmlns="http://www.w3.org/2000/svg">
  <g id="g10" transform="matrix(3, 0, 0, -3, 0, 900)" style="">
    <g id="g12" transform="scale(0.1)">
      <path d="M 1500 3000 C 671.57 3000 0 2328.43 0 1500 C 0 671.57 671.57 0 1500 0 C 2328.43 0 3000 671.57 3000 1500 C 3000 2328.43 2328.43 3000 1500 3000 Z M 2454.59 545.41 C 2199.61 290.422 1860.6 150 1500 150 C 1139.4 150 800.387 290.422 545.406 545.41 C 290.426 800.391 150 1139.4 150 1500 C 150 1860.6 290.426 2199.61 545.406 2454.59 C 800.387 2709.57 1139.4 2850 1500 2850 C 1860.6 2850 2199.61 2709.57 2454.59 2454.59 C 2709.57 2199.61 2850 1860.6 2850 1500 C 2850 1139.4 2709.57 800.391 2454.59 545.41" style="fill-opacity: 1; fill-rule: nonzero; stroke: none;" id="path14"/>
      <title>Go icon</title>
      <path d="M 321.224 1697.227 C 316.056 1697.227 314.847 1699.791 317.375 1703.807 L 344.423 1738.936 C 346.952 1742.839 353.33 1745.403 358.497 1745.403 L 817.219 1745.403 C 822.277 1745.403 823.597 1741.5 821.068 1737.598 L 799.187 1703.807 C 796.658 1699.791 790.17 1696 786.323 1696 L 321.224 1697.227 Z M 127.268 1577.342 C 122.099 1577.342 120.781 1579.907 123.419 1583.811 L 150.358 1619.05 C 152.886 1622.954 159.373 1625.519 164.542 1625.519 L 750.369 1625.519 C 755.535 1625.519 758.065 1621.616 756.745 1617.712 L 746.519 1586.487 C 745.2 1581.245 740.141 1578.68 734.975 1578.68 L 127.268 1577.342 Z M 438.213 1457.458 C 433.046 1457.458 431.726 1461.361 434.365 1465.263 L 452.287 1497.828 C 454.816 1501.732 459.984 1505.634 465.151 1505.634 L 722.11 1505.634 C 727.279 1505.634 729.808 1501.732 729.808 1496.489 L 727.279 1465.263 C 727.279 1460.022 722.11 1456.118 718.261 1456.118 L 438.213 1457.458 Z M 1771.825 1720.646 C 1690.9 1699.791 1635.595 1684.179 1555.989 1663.324 C 1536.638 1658.195 1535.428 1656.857 1518.605 1676.372 C 1499.475 1698.565 1485.29 1712.839 1458.351 1725.888 C 1377.316 1766.258 1298.921 1754.548 1225.803 1706.372 C 1138.391 1649.05 1093.419 1564.294 1094.739 1458.796 C 1095.948 1354.524 1166.648 1268.542 1268.134 1254.156 C 1355.546 1242.445 1428.664 1273.671 1486.61 1340.138 C 1498.154 1354.524 1508.38 1370.136 1521.244 1388.426 L 1273.301 1388.426 C 1246.363 1388.426 1239.876 1405.377 1248.892 1427.458 C 1265.605 1467.829 1296.391 1535.633 1314.423 1569.535 C 1320.051 1582.373 1332.679 1590.576 1346.53 1590.39 L 1814.158 1590.39 C 1811.629 1555.149 1811.629 1520.02 1806.461 1484.78 C 1793.151 1392.004 1756.915 1304.151 1701.127 1229.397 C 1608.656 1105.61 1487.819 1028.66 1334.985 1007.917 C 1209.088 990.967 1092.101 1015.724 989.404 1093.789 C 894.295 1166.835 840.309 1263.3 826.235 1383.184 C 809.523 1525.263 850.644 1652.953 935.418 1765.031 C 1026.679 1886.142 1147.406 1963.091 1295.182 1990.414 C 1415.91 2012.607 1531.58 1998.221 1635.595 1926.624 C 1703.765 1880.901 1752.474 1818.449 1784.69 1742.839 C 1792.388 1731.129 1787.219 1724.55 1771.825 1720.646 M 2197.121 1000 C 2080.132 1002.676 1973.478 1036.579 1883.537 1114.755 C 1808.715 1178.714 1759.394 1268.1 1744.778 1366.234 C 1721.687 1513.44 1761.49 1643.809 1848.903 1759.789 C 1942.692 1884.916 2055.722 1950.043 2208.667 1977.366 C 2339.731 2000.786 2463.096 1987.85 2574.808 1910.9 C 2676.294 1840.642 2739.297 1745.403 2756.01 1620.388 C 2777.781 1444.41 2727.753 1301.105 2608.234 1178.544 C 2523.46 1091.224 2419.335 1036.579 2299.818 1011.821 C 2265.182 1005.242 2230.547 1004.016 2197.121 1000 Z M 2502.789 1526.489 C 2501.579 1543.44 2501.579 1556.488 2499.051 1569.535 C 2475.961 1698.565 2358.971 1771.499 2236.925 1742.839 C 2117.407 1715.515 2040.33 1638.567 2012.072 1516.118 C 1988.982 1414.41 2037.801 1311.478 2130.271 1269.768 C 2200.971 1238.542 2271.559 1242.445 2339.731 1277.575 C 2441.216 1331.105 2496.413 1414.41 2502.9 1526.489 L 2502.789 1526.489 Z" style=""/>
    </g>
  </g>
  <g transform="matrix(2.18986, 0, 0, 2.141408, 100, 100)" style=""/>
  <g transform="matrix(2.18986, 0, 0, 2.141408, 100, 100)" style=""/>
  <g transform="matrix(2.18986, 0, 0, 2.141408, 100, 100)" style=""/>
  <g transform="matrix(2.18986, 0, 0, 2.141408, 100, 100)" style=""/>
  <g transform="matrix(2.18986, 0, 0, 2.141408, 100, 100)" style=""/>
  <g transform="matrix(2.18986, 0, 0, 2.141408, 100, 100)" style=""/>
  <g transform="matrix(2.18986, 0, 0, 2.141408, 100, 100)" style=""/>
  <g transform="matrix(2.18986, 0, 0, 2.141408, 100, 100)" style=""/>
  <g transform="matrix(2.18986, 0, 0, 2.141408, 100, 100)" style=""/>
  <g transform="matrix(2.18986, 0, 0, 2.141408, 100, 100)" style=""/>
  <g transform="matrix(2.18986, 0, 0, 2.141408, 100, 100)" style=""/>
  <g transform="matrix(2.18986, 0, 0, 2.141408, 100, 100)" style=""/>
  <g transform="matrix(2.18986, 0, 0, 2.141408, 100, 100)" style=""/>
  <g transform="matrix(2.18986, 0, 0, 2.141408, 100, 100)" style=""/>
  <g transform="matrix(2.18986, 0, 0, 2.141408, 100, 100)" style=""/>
</svg>