<?xml version="1.0" encoding="utf-8"?>
<svg viewBox="0 0 900 900" xmlns="http://www.w3.org/2000/svg">
  <g id="g10" transform="matrix(3, 0, 0, -3, 0, 900)" style="">
    <g id="g12" transform="scale(0.1)">
      <path d="M 1500 3000 C 671.57 3000 0 2328.43 0 1500 C 0 671.57 671.57 0 1500 0 C 2328.43 0 3000 671.57 3000 1500 C 3000 2328.43 2328.43 3000 1500 3000 Z M 2454.59 545.41 C 2199.61 290.422 1860.6 150 1500 150 C 1139.4 150 800.387 290.422 545.406 545.41 C 290.426 800.391 150 1139.4 150 1500 C 150 1860.6 290.426 2199.61 545.406 2454.59 C 800.387 2709.57 1139.4 2850 1500 2850 C 1860.6 2850 2199.61 2709.57 2454.59 2454.59 C 2709.57 2199.61 2850 1860.6 2850 1500 C 2850 1139.4 2709.57 800.391 2454.59 545.41" style="fill-opacity: 1; fill-rule: nonzero; stroke: none;" id="path14"/>
      <title>Go icon</title>
      <title>Elixir icon</title>
      <title>R icon</title>
      <title>OpenSearch logo</title>
      <desc>Search engine software fork of Elasticsearch</desc>
      <title>OpenSearch logo</title>
      <desc>Search engine software fork of Elasticsearch</desc>
      <g transform="matrix(3.333333, 0, 0, -3.333333, -3594.97168, 2466.221924)"/>
      <g transform="matrix(3.333333, 0, 0, -3.333333, -3594.97168, 2466.221924)"/>
      <g transform="matrix(3.333333, 0, 0, -3.333333, -3594.97168, 2466.221924)"/>
      <g transform="matrix(3.333333, 0, 0, -3.333333, -3594.97168, 2466.221924)"/>
      <g transform="matrix(3.333333, 0, 0, -3.333333, -3594.97168, 2466.221924)"/>
      <g transform="matrix(3.333333, 0, 0, -3.333333, -3594.97168, 2466.221924)"/>
      <g transform="matrix(3.333333, 0, 0, -3.333333, -3594.97168, 2466.221924)"/>
      <g transform="matrix(3.333333, 0, 0, -3.333333, -3594.97168, 2466.221924)"/>
      <g transform="matrix(3.333333, 0, 0, -3.333333, -3594.97168, 2466.221924)"/>
      <g transform="matrix(3.333333, 0, 0, -3.333333, -3594.97168, 2466.221924)"/>
      <g transform="matrix(3.333333, 0, 0, -3.333333, -3594.97168, 2466.221924)"/>
      <g transform="matrix(3.333333, 0, 0, -3.333333, -3594.97168, 2466.221924)"/>
      <g transform="matrix(3.333333, 0, 0, -3.333333, -3594.97168, 2466.221924)"/>
      <g transform="matrix(3.333333, 0, 0, -3.333333, -3594.97168, 2466.221924)"/>
      <g transform="matrix(3.333333, 0, 0, -3.333333, -3594.97168, 2466.221924)"/>
      <title>redash-logo</title>
      <desc>Created with Sketch.</desc>
      <g id="g-1" style="fill-rule:nonzero;clip-rule:nonzero;stroke:#000000;stroke-miterlimit:4;" transform="matrix(3.333333, 0, 0, -3.333333, -4120.10498, 2211.285156)"/>
    </g>
  </g>
  <g transform="matrix(2.18986, 0, 0, 2.141408, 100, 100)" style=""/>
  <g transform="matrix(2.18986, 0, 0, 2.141408, 100, 100)" style=""/>
  <g transform="matrix(2.18986, 0, 0, 2.141408, 100, 100)" style=""/>
  <g transform="matrix(2.18986, 0, 0, 2.141408, 100, 100)" style=""/>
  <g transform="matrix(2.18986, 0, 0, 2.141408, 100, 100)" style=""/>
  <g transform="matrix(2.18986, 0, 0, 2.141408, 100, 100)" style=""/>
  <g transform="matrix(2.18986, 0, 0, 2.141408, 100, 100)" style=""/>
  <g transform="matrix(2.18986, 0, 0, 2.141408, 100, 100)" style=""/>
  <g transform="matrix(2.18986, 0, 0, 2.141408, 100, 100)" style=""/>
  <g transform="matrix(2.18986, 0, 0, 2.141408, 100, 100)" style=""/>
  <g transform="matrix(2.18986, 0, 0, 2.141408, 100, 100)" style=""/>
  <g transform="matrix(2.18986, 0, 0, 2.141408, 100, 100)" style=""/>
  <g transform="matrix(2.18986, 0, 0, 2.141408, 100, 100)" style=""/>
  <g transform="matrix(2.18986, 0, 0, 2.141408, 100, 100)" style=""/>
  <g transform="matrix(2.18986, 0, 0, 2.141408, 100, 100)" style=""/>
  <rect id="_Transparent_Rectangle_" data-name="&lt;Transparent Rectangle&gt;" class="cls-1" width="800" height="800" style="fill: none;" y="60.148" x="43.806"/>
  <g transform="matrix(1.465551, 0, 0, 0.952627, 73.374138, 221.492157)" style="">
    <g>
      <path d="M 355.86 219.684 L 256 63.436 L 156.14 219.684 L 0 145.724 L 79.068 448.564 L 432.931 448.564 L 512 145.724 L 355.86 219.684 Z M 256 390.746 L 201.816 306.098 L 256.456 413.87 L 310.184 306.098 L 256 390.746 Z"/>
    </g>
  </g>
</svg>