<?xml version="1.0" encoding="utf-8"?>
<svg viewBox="0 0 900 900" xmlns="http://www.w3.org/2000/svg">
  <g id="g10" transform="matrix(3, 0, 0, -3, 0.000095, 900)" style="">
    <g id="g12" transform="scale(0.1)">
      <path d="M 1500 3000 C 671.57 3000 0 2328.43 0 1500 C 0 671.57 671.57 0 1500 0 C 2328.43 0 3000 671.57 3000 1500 C 3000 2328.43 2328.43 3000 1500 3000 Z M 2454.59 545.41 C 2199.61 290.422 1860.6 150 1500 150 C 1139.4 150 800.387 290.422 545.406 545.41 C 290.426 800.391 150 1139.4 150 1500 C 150 1860.6 290.426 2199.61 545.406 2454.59 C 800.387 2709.57 1139.4 2850 1500 2850 C 1860.6 2850 2199.61 2709.57 2454.59 2454.59 C 2709.57 2199.61 2850 1860.6 2850 1500 C 2850 1139.4 2709.57 800.391 2454.59 545.41" style="fill-opacity: 1; fill-rule: nonzero; stroke: none; fill: rgb(255, 255, 255);" id="path14"/>
    </g>
  </g>
  <g transform="matrix(1.197413, 0, 0, 1.225989, 152.907227, 157.5)" style=""/>
  <g transform="matrix(1.197413, 0, 0, 1.225989, 152.907227, 157.5)" style=""/>
  <g transform="matrix(1.197413, 0, 0, 1.225989, 152.907227, 157.5)" style=""/>
  <g transform="matrix(1.197413, 0, 0, 1.225989, 152.907227, 157.5)" style=""/>
  <g transform="matrix(1.197413, 0, 0, 1.225989, 152.907227, 157.5)" style=""/>
  <g transform="matrix(1.197413, 0, 0, 1.225989, 152.907227, 157.5)" style=""/>
  <g transform="matrix(1.197413, 0, 0, 1.225989, 152.907227, 157.5)" style=""/>
  <g transform="matrix(1.197413, 0, 0, 1.225989, 152.907227, 157.5)" style=""/>
  <g transform="matrix(1.197413, 0, 0, 1.225989, 152.907227, 157.5)" style=""/>
  <g transform="matrix(1.197413, 0, 0, 1.225989, 152.907227, 157.5)" style=""/>
  <g transform="matrix(1.197413, 0, 0, 1.225989, 152.907227, 157.5)" style=""/>
  <g transform="matrix(1.197413, 0, 0, 1.225989, 152.907227, 157.5)" style=""/>
  <g transform="matrix(1.197413, 0, 0, 1.225989, 152.907227, 157.5)" style=""/>
  <g transform="matrix(1.197413, 0, 0, 1.225989, 152.907227, 157.5)" style=""/>
  <g transform="matrix(1.197413, 0, 0, 1.225989, 152.907227, 157.5)" style=""/>
  <g transform="matrix(2.233184, 0, 0, 2.12396, 106.500221, 119.451385)" style="">
    <path d="M219.044,48.206l-96.92,55.979l0.161,77.924l96.759-56.063V48.206z" style="fill: rgb(255, 255, 255);"/>
    <path d="M124.139,320.403l0.019,0.012C124.844,320.318,124.71,320.332,124.139,320.403z" style="fill: rgb(255, 255, 255);"/>
    <path d="M243.331,12.782L161.269,0L57.011,60.782l0.39,91.279c1.053,1.591,2.029,3.051,2.288,3.451L9.873,185.02v68.227 l111.623,65.572l189.047-110.88v-66.127c0-0.017-0.003-0.033-0.004-0.051c0-0.007,0.001-2.232,0.002-4.46l-67.123-39.295 L243.331,12.782z M228.417,30.404v101.495l-115.666,67.275V97.908C118.053,94.892,228.417,30.404,228.417,30.404z M295.543,199.35 l-166.147,97.515V251.96l166.147-97.079V199.35z" style="fill: rgb(255, 255, 255);"/>
    <path d="M227.2,226.965c1.268,0,2.556-0.322,3.734-1.001l52.682-30.318c3.59-2.065,4.825-6.651,2.759-10.241 c-2.065-3.589-6.65-4.825-10.241-2.759l-52.682,30.318c-3.59,2.065-4.825,6.651-2.759,10.241 C222.081,225.616,224.604,226.965,227.2,226.965z" style="fill: rgb(255, 255, 255);"/>
  </g>
</svg>