<?xml version="1.0" encoding="utf-8"?>
<svg viewBox="0 0 900 900" xmlns="http://www.w3.org/2000/svg">
  <g id="g10" transform="matrix(3, 0, 0, -3, 0.000095, 900)" style="">
    <g id="g12" transform="scale(0.1)">
      <path d="M 1500 3000 C 671.57 3000 0 2328.43 0 1500 C 0 671.57 671.57 0 1500 0 C 2328.43 0 3000 671.57 3000 1500 C 3000 2328.43 2328.43 3000 1500 3000 Z M 2454.59 545.41 C 2199.61 290.422 1860.6 150 1500 150 C 1139.4 150 800.387 290.422 545.406 545.41 C 290.426 800.391 150 1139.4 150 1500 C 150 1860.6 290.426 2199.61 545.406 2454.59 C 800.387 2709.57 1139.4 2850 1500 2850 C 1860.6 2850 2199.61 2709.57 2454.59 2454.59 C 2709.57 2199.61 2850 1860.6 2850 1500 C 2850 1139.4 2709.57 800.391 2454.59 545.41" style="fill-opacity: 1; fill-rule: nonzero; stroke: none;" id="path14"/>
    </g>
  </g>
  <path d="M 577.733 100 L 413.29 283.961 L 300.781 409.808 L 138.716 263.28 L 100 287.767 L 100 617.463 L 134.754 644.256 L 303.122 491.866 L 577.733 800 L 700 740.967 L 700 161.752 L 577.733 100 Z M 153.123 539.593 L 153.123 359.989 L 228.031 450.002 L 153.123 539.593 Z M 554.503 577.9 L 400.001 450.002 L 554.503 321.68 L 554.503 577.9 Z" style=""/>
</svg>