<?xml version="1.0" encoding="utf-8"?>
<svg viewBox="0 0 900 900" xmlns="http://www.w3.org/2000/svg">
  <g id="g10" transform="matrix(3, 0, 0, -3, 0, 900)" style="">
    <g id="g12" transform="scale(0.1)">
      <path d="M 1500 3000 C 671.57 3000 0 2328.43 0 1500 C 0 671.57 671.57 0 1500 0 C 2328.43 0 3000 671.57 3000 1500 C 3000 2328.43 2328.43 3000 1500 3000 Z M 2454.59 545.41 C 2199.61 290.422 1860.6 150 1500 150 C 1139.4 150 800.387 290.422 545.406 545.41 C 290.426 800.391 150 1139.4 150 1500 C 150 1860.6 290.426 2199.61 545.406 2454.59 C 800.387 2709.57 1139.4 2850 1500 2850 C 1860.6 2850 2199.61 2709.57 2454.59 2454.59 C 2709.57 2199.61 2850 1860.6 2850 1500 C 2850 1139.4 2709.57 800.391 2454.59 545.41" style="fill-opacity: 1; fill-rule: nonzero; stroke: none; fill: rgb(255, 255, 255);" id="path14"/>
      <title>Go icon</title>
      <title>Elixir icon</title>
      <title>R icon</title>
    </g>
  </g>
  <g transform="matrix(2.18986, 0, 0, 2.141408, 100, 100)" style=""/>
  <g transform="matrix(2.18986, 0, 0, 2.141408, 100, 100)" style=""/>
  <g transform="matrix(2.18986, 0, 0, 2.141408, 100, 100)" style=""/>
  <g transform="matrix(2.18986, 0, 0, 2.141408, 100, 100)" style=""/>
  <g transform="matrix(2.18986, 0, 0, 2.141408, 100, 100)" style=""/>
  <g transform="matrix(2.18986, 0, 0, 2.141408, 100, 100)" style=""/>
  <g transform="matrix(2.18986, 0, 0, 2.141408, 100, 100)" style=""/>
  <g transform="matrix(2.18986, 0, 0, 2.141408, 100, 100)" style=""/>
  <g transform="matrix(2.18986, 0, 0, 2.141408, 100, 100)" style=""/>
  <g transform="matrix(2.18986, 0, 0, 2.141408, 100, 100)" style=""/>
  <g transform="matrix(2.18986, 0, 0, 2.141408, 100, 100)" style=""/>
  <g transform="matrix(2.18986, 0, 0, 2.141408, 100, 100)" style=""/>
  <g transform="matrix(2.18986, 0, 0, 2.141408, 100, 100)" style=""/>
  <g transform="matrix(2.18986, 0, 0, 2.141408, 100, 100)" style=""/>
  <g transform="matrix(2.18986, 0, 0, 2.141408, 100, 100)" style=""/>
  <rect id="_Transparent_Rectangle_" data-name="&lt;Transparent Rectangle&gt;" class="cls-1" width="800" height="800" style="fill: none;" y="60.148" x="43.806"/>
  <path d="M 447.941 162.299 C 431.437 145.526 404.24 145.526 387.736 162.299 L 387.53 162.299 C 379.534 170.422 375.085 181.34 375.147 192.691 C 375.147 204.649 379.883 215.353 387.559 222.995 L 387.764 223.2 C 395.324 230.9 405.882 235.625 417.736 235.625 C 429.618 235.625 440.266 230.9 447.941 223.2 L 448.03 222.995 C 455.707 215.353 460.412 204.649 460.412 192.691 C 460.412 180.791 455.735 170.029 448.03 162.299 L 447.941 162.299 Z M 417.736 750.271 C 429.618 750.271 440.266 745.4 447.941 737.758 L 448.03 737.524 C 455.707 729.913 460.412 719.12 460.412 707.309 C 460.412 695.349 455.735 684.616 448.03 676.857 L 447.941 676.857 C 440.024 668.753 429.115 664.202 417.736 664.259 C 406.413 664.189 395.563 668.746 387.736 676.857 L 387.53 676.857 C 379.883 684.616 375.118 695.349 375.118 707.309 C 375.118 719.15 379.853 729.913 387.53 737.524 L 387.736 737.758 C 395.324 745.4 405.882 750.271 417.736 750.271 Z M 649.795 620.129 C 660.353 617.329 669.884 610.505 675.735 600.178 L 676.53 598.663 C 681.562 589.079 682.759 577.963 679.883 567.541 C 677.056 556.547 669.906 547.135 660.029 541.408 L 659.413 540.999 C 649.77 535.616 638.373 534.232 627.706 537.15 C 617.118 539.804 607.589 546.92 601.794 557.157 C 595.912 567.337 594.706 579.033 597.5 589.795 C 600.412 600.383 607.206 609.95 617.354 615.929 L 617.412 615.929 C 627.589 621.85 639.088 622.9 649.795 620.129 Z M 461.413 405.988 C 449.918 394.325 434.18 387.735 417.736 387.699 C 400.677 387.699 385.295 394.758 374.146 405.988 C 363.03 417.217 356.148 432.705 356.148 449.942 C 356.148 467.179 363 482.725 374.146 494.099 C 398.122 518.29 437.438 518.29 461.413 494.099 C 472.559 482.725 479.412 467.179 479.412 449.942 C 479.412 432.705 472.559 417.217 461.413 405.988 Z M 436.852 332.779 C 461.647 336.891 483.912 348.878 500.913 366.145 L 501.03 366.145 C 503.736 368.858 506.383 371.862 508.824 374.867 L 551.354 350.046 C 545.748 332.972 545.269 314.652 549.971 297.312 C 556.152 273.688 571.561 253.476 592.794 241.137 L 593.53 240.67 C 614.387 228.656 639.232 225.441 662.501 231.745 C 685.148 237.87 705.589 252.775 718.324 274.971 L 718.324 275.029 C 731 297.108 733.559 322.454 727.531 345.261 C 721.374 368.912 705.962 389.153 684.706 401.495 L 678.882 404.938 L 678.294 404.938 C 658.575 414.386 636.083 416.466 614.942 410.799 C 597.716 406.105 582.244 396.537 570.412 383.266 L 527.941 407.999 C 538.015 435.098 538.015 464.872 527.941 491.97 L 570.412 516.645 C 582.559 502.938 598.03 493.633 614.942 489.112 C 638.492 482.635 663.69 485.998 684.677 498.416 L 686.089 499.087 L 686.089 499.146 C 706.62 511.67 721.463 531.594 727.501 554.736 C 733.783 578.414 730.48 603.59 718.294 624.883 L 717.53 626.429 L 717.441 626.283 C 705.295 646.767 685.611 661.78 662.53 668.166 C 638.97 674.465 613.848 671.124 592.794 658.892 L 592.794 658.716 C 571.57 646.354 556.166 626.136 549.971 602.512 C 545.284 585.202 545.765 566.913 551.354 549.867 L 508.824 525.133 C 506.374 528.12 503.771 530.983 501.03 533.708 L 500.913 533.853 C 483.677 551.411 461.23 563.041 436.852 567.045 L 436.852 616.599 C 454.305 620.33 470.263 629.074 482.736 641.742 L 482.795 641.858 C 499.412 658.541 509.677 681.758 509.677 707.28 C 509.677 732.742 499.383 755.812 482.795 772.583 L 482.736 772.845 C 465.62 790.177 442.198 799.962 417.736 800 C 393.318 799.938 369.946 790.167 352.854 772.875 L 352.794 772.875 L 352.794 772.612 C 335.505 755.203 325.827 731.743 325.853 707.309 C 325.853 681.787 336.147 658.541 352.794 641.887 L 352.794 641.771 L 352.854 641.771 C 365.32 629.126 381.252 620.385 398.677 616.628 L 398.677 567.075 C 374.313 563.082 351.882 551.448 334.676 533.882 L 334.5 533.737 C 312.361 511.364 299.971 481.259 300 449.913 C 300 417.188 313.294 387.612 334.5 366.145 L 334.676 366.145 C 351.884 348.55 374.305 336.862 398.677 332.779 L 398.677 283.428 C 381.267 279.597 365.351 270.844 352.854 258.229 L 352.794 258.229 L 352.794 258.113 C 335.494 240.664 325.815 217.162 325.853 192.691 C 325.853 167.286 336.147 144.012 352.794 127.27 L 352.854 127.212 C 369.9 109.843 393.295 100.03 417.736 100 C 443.059 100 466 110.354 482.736 127.183 L 482.736 127.241 L 482.795 127.241 C 499.412 143.982 509.677 167.258 509.677 192.662 C 509.677 218.212 499.383 241.284 482.795 258.083 L 482.736 258.229 C 470.217 270.846 454.28 279.599 436.852 283.428 L 436.852 332.779 Z M 675.707 299.849 L 675.354 299.295 C 669.721 289.733 660.535 282.739 649.765 279.813 C 638.815 276.831 627.115 278.367 617.324 284.07 L 617.382 284.07 C 607.178 289.904 600.323 299.5 597.471 310.204 C 594.677 320.849 595.882 332.603 601.766 342.841 L 601.971 343.103 C 607.853 353.225 617.235 359.991 627.678 362.733 C 638.176 365.736 649.882 364.454 659.971 358.533 L 660.53 358.271 C 670.103 352.477 677.031 343.221 679.854 332.458 C 682.819 321.469 681.33 309.764 675.707 299.849" style="fill: rgb(255, 255, 255);"/>
</svg>