<?xml version="1.0" encoding="utf-8"?>
<svg viewBox="0 0 900 900" xmlns="http://www.w3.org/2000/svg">
  <g id="g10" transform="matrix(3, 0, 0, -3, 0.000095, 900)" style="">
    <g id="g12" transform="scale(0.1)">
      <path d="M 1500 3000 C 671.57 3000 0 2328.43 0 1500 C 0 671.57 671.57 0 1500 0 C 2328.43 0 3000 671.57 3000 1500 C 3000 2328.43 2328.43 3000 1500 3000 Z M 2454.59 545.41 C 2199.61 290.422 1860.6 150 1500 150 C 1139.4 150 800.387 290.422 545.406 545.41 C 290.426 800.391 150 1139.4 150 1500 C 150 1860.6 290.426 2199.61 545.406 2454.59 C 800.387 2709.57 1139.4 2850 1500 2850 C 1860.6 2850 2199.61 2709.57 2454.59 2454.59 C 2709.57 2199.61 2850 1860.6 2850 1500 C 2850 1139.4 2709.57 800.391 2454.59 545.41" style="fill-opacity: 1; fill-rule: nonzero; stroke: none; fill: rgb(255, 255, 255);" id="path14"/>
    </g>
  </g>
  <path fill-rule="evenodd" clip-rule="evenodd" d="M 748.465 301.797 L 449.924 128.924 L 151.381 301.797 L 151.381 601.543 L 197.603 628.305 L 292.047 590.372 C 318.069 579.923 335.102 554.842 335.102 526.977 L 335.102 292.095 L 381.03 292.095 L 381.03 526.977 C 381.03 573.42 352.644 615.216 309.274 632.637 L 247.754 657.348 L 449.924 774.412 L 748.465 601.543 L 748.465 301.797 Z M 426.959 383.28 C 426.959 332.92 468.085 292.095 518.817 292.095 L 572.404 292.095 C 618.907 292.095 656.607 329.518 656.607 375.681 L 656.607 383.28 L 610.677 383.28 L 610.677 375.681 C 610.677 354.698 593.54 337.687 572.404 337.687 L 518.817 337.687 C 493.452 337.687 472.889 358.101 472.889 383.28 C 472.889 408.46 493.452 428.873 518.817 428.873 L 564.747 428.873 C 615.48 428.873 656.607 469.698 656.607 520.06 C 656.607 570.42 615.48 611.245 564.747 611.245 L 518.817 611.245 C 468.085 611.245 426.959 570.42 426.959 520.06 L 472.889 520.06 C 472.889 545.24 493.452 565.652 518.817 565.652 L 564.747 565.652 C 590.114 565.652 610.677 545.24 610.677 520.06 C 610.677 494.878 590.114 474.466 564.747 474.466 L 518.817 474.466 C 468.085 474.466 426.959 433.64 426.959 383.28 Z" style="fill: rgb(255, 255, 255);"/>
</svg>