<?xml version="1.0" encoding="utf-8"?>
<svg viewBox="0 0 900 900" xmlns="http://www.w3.org/2000/svg">
  <g id="g10" transform="matrix(3, 0, 0, -3, -0.000004, 900)" style="">
    <g id="g12" transform="scale(0.1)">
      <path d="M 1500 3000 C 671.57 3000 0 2328.43 0 1500 C 0 671.57 671.57 0 1500 0 C 2328.43 0 3000 671.57 3000 1500 C 3000 2328.43 2328.43 3000 1500 3000 Z M 2454.59 545.41 C 2199.61 290.422 1860.6 150 1500 150 C 1139.4 150 800.387 290.422 545.406 545.41 C 290.426 800.391 150 1139.4 150 1500 C 150 1860.6 290.426 2199.61 545.406 2454.59 C 800.387 2709.57 1139.4 2850 1500 2850 C 1860.6 2850 2199.61 2709.57 2454.59 2454.59 C 2709.57 2199.61 2850 1860.6 2850 1500 C 2850 1139.4 2709.57 800.391 2454.59 545.41" style="fill-opacity: 1; fill-rule: nonzero; stroke: none; fill: rgb(0, 254, 105);" id="path14"/>
    </g>
  </g>
  <path d="M 782.85 417.241 C 768.696 417.241 759.268 409.051 759.268 392.237 L 759.268 295.688 C 759.268 234.047 733.535 200 667.072 200 L 636.2 200 L 636.2 265.085 L 645.635 265.085 C 671.792 265.085 684.23 279.308 684.23 304.739 L 684.23 390.082 C 684.23 427.153 695.374 442.238 719.814 449.999 C 695.374 457.329 684.23 472.842 684.23 509.912 C 684.23 531.029 684.23 552.157 684.23 573.275 C 684.23 590.95 684.23 608.19 679.509 625.857 C 674.795 642.237 667.072 657.756 656.353 671.119 C 650.348 678.882 643.491 685.344 635.774 691.376 L 635.774 700 L 666.645 700 C 733.111 700 758.834 665.946 758.834 604.306 L 758.834 507.756 C 758.834 490.515 767.844 482.759 782.423 482.759 L 800 482.759 L 800 417.667 L 782.85 417.667 L 782.85 417.241 Z" style="fill: rgb(0, 254, 105);"/>
  <path d="M 572.738 298.285 L 477.548 298.285 C 475.403 298.285 473.685 296.562 473.685 294.407 L 473.685 287.078 C 473.685 284.921 475.403 283.201 477.548 283.201 L 573.164 283.201 C 575.308 283.201 577.027 284.921 577.027 287.078 L 577.027 294.407 C 577.027 296.562 574.883 298.285 572.738 298.285 Z" style="fill: rgb(0, 254, 105);"/>
  <path d="M 589.029 391.382 L 519.57 391.382 C 517.427 391.382 515.708 389.662 515.708 387.505 L 515.708 380.176 C 515.708 378.028 517.427 376.298 519.57 376.298 L 589.029 376.298 C 591.175 376.298 592.891 378.028 592.891 380.176 L 592.891 387.505 C 592.891 389.234 591.175 391.382 589.029 391.382 Z" style="fill: rgb(0, 254, 105);"/>
  <path d="M 616.474 344.834 L 477.548 344.834 C 475.403 344.834 473.685 343.111 473.685 340.956 L 473.685 333.627 C 473.685 331.478 475.403 329.748 477.548 329.748 L 616.047 329.748 C 618.19 329.748 619.902 331.478 619.902 333.627 L 619.902 340.956 C 619.902 342.685 618.618 344.834 616.474 344.834 Z" style="fill: rgb(0, 254, 105);"/>
  <path d="M 367.348 319.397 C 376.776 319.397 386.21 320.257 395.218 322.414 L 395.218 304.739 C 395.218 279.741 408.08 265.085 433.805 265.085 L 443.24 265.085 L 443.24 200 L 412.368 200 C 345.904 200 320.178 234.047 320.178 295.688 L 320.178 327.587 C 335.185 322.414 351.049 319.397 367.348 319.397 Z" style="fill: rgb(0, 254, 105);"/>
  <path d="M 645.635 553.865 C 638.77 499.125 596.753 453.438 542.72 443.091 C 527.713 440.075 512.706 439.641 498.124 442.23 C 497.7 442.23 497.7 441.797 497.274 441.797 C 473.685 392.231 423.087 359.471 368.2 359.471 C 313.315 359.471 263.149 391.37 239.133 440.937 C 238.708 440.937 238.708 441.37 238.275 441.37 C 222.843 439.641 207.404 440.502 191.971 444.387 C 138.795 457.315 98.491 502.144 91.2 556.455 C 90.34 562.054 89.915 567.661 89.915 572.834 C 89.915 589.214 101.067 604.298 117.358 606.455 C 137.511 609.471 155.095 593.953 154.661 574.129 C 154.661 571.105 154.661 567.661 155.095 564.645 C 158.524 537.058 179.534 513.784 206.976 507.316 C 215.552 505.159 224.128 504.732 232.278 506.02 C 258.436 509.471 284.159 496.108 295.304 472.833 C 303.455 455.593 316.317 440.502 333.474 432.313 C 352.335 423.261 373.78 421.973 393.499 428.868 C 414.086 436.198 429.519 451.708 438.952 471.105 C 448.819 490.075 453.532 503.437 474.544 506.02 C 483.118 507.316 507.133 506.882 516.135 506.455 C 533.718 506.455 551.302 512.488 563.73 524.99 C 571.881 533.607 577.884 544.388 580.454 556.455 C 584.316 575.851 579.597 595.248 568.019 609.898 C 559.876 620.245 548.725 628.008 536.288 631.451 C 530.289 633.179 524.283 633.608 518.278 633.608 C 514.85 633.608 510.136 633.608 504.557 633.608 C 487.407 633.608 450.962 633.608 423.52 633.608 C 404.652 633.608 389.645 618.522 389.645 599.553 L 389.645 535.764 L 389.645 473.262 C 389.645 468.088 385.358 463.783 380.211 463.783 L 366.917 463.783 C 340.758 464.21 319.752 493.525 319.752 524.557 C 319.752 555.592 319.752 637.919 319.752 637.919 C 319.752 671.539 346.763 698.692 380.211 698.692 C 380.211 698.692 529.004 698.266 531.148 698.266 C 565.448 694.815 597.18 677.146 618.618 649.986 C 640.062 623.696 649.921 589.214 645.635 553.865 Z" style="fill: rgb(0, 254, 105);"/>
</svg>