<?xml version="1.0" encoding="utf-8"?>
<svg viewBox="0 0 900 900" xmlns="http://www.w3.org/2000/svg">
  <g id="g10" transform="matrix(3, 0, 0, -3, 0.000095, 900)" style="">
    <g id="g12" transform="scale(0.1)">
      <path d="M 1500 3000 C 671.57 3000 0 2328.43 0 1500 C 0 671.57 671.57 0 1500 0 C 2328.43 0 3000 671.57 3000 1500 C 3000 2328.43 2328.43 3000 1500 3000 Z M 2454.59 545.41 C 2199.61 290.422 1860.6 150 1500 150 C 1139.4 150 800.387 290.422 545.406 545.41 C 290.426 800.391 150 1139.4 150 1500 C 150 1860.6 290.426 2199.61 545.406 2454.59 C 800.387 2709.57 1139.4 2850 1500 2850 C 1860.6 2850 2199.61 2709.57 2454.59 2454.59 C 2709.57 2199.61 2850 1860.6 2850 1500 C 2850 1139.4 2709.57 800.391 2454.59 545.41" style="fill-opacity: 1; fill-rule: nonzero; stroke: none;" id="path14"/>
    </g>
  </g>
  <path d="M 750.13 417.241 C 735.976 417.241 726.548 409.051 726.548 392.237 L 726.548 295.688 C 726.548 234.047 700.815 200 634.352 200 L 603.48 200 L 603.48 265.085 L 612.915 265.085 C 639.072 265.085 651.51 279.308 651.51 304.739 L 651.51 390.082 C 651.51 427.153 662.654 442.238 687.094 449.999 C 662.654 457.329 651.51 472.842 651.51 509.912 C 651.51 531.029 651.51 552.157 651.51 573.275 C 651.51 590.95 651.51 608.19 646.789 625.857 C 642.075 642.237 634.352 657.756 623.633 671.119 C 617.628 678.882 610.771 685.344 603.054 691.376 L 603.054 700 L 633.925 700 C 700.391 700 726.114 665.946 726.114 604.306 L 726.114 507.756 C 726.114 490.515 735.124 482.759 749.703 482.759 L 767.28 482.759 L 767.28 417.667 L 750.13 417.667 L 750.13 417.241 Z" style="" transform="matrix(1, 0, 0, 1, 32.719971, 0)"/>
  <path d="M 540.018 298.285 L 444.828 298.285 C 442.683 298.285 440.965 296.562 440.965 294.407 L 440.965 287.078 C 440.965 284.921 442.683 283.201 444.828 283.201 L 540.444 283.201 C 542.588 283.201 544.307 284.921 544.307 287.078 L 544.307 294.407 C 544.307 296.562 542.163 298.285 540.018 298.285 Z" style="" transform="matrix(1, 0, 0, 1, 32.719971, 0)"/>
  <path d="M 556.309 391.382 L 486.85 391.382 C 484.707 391.382 482.988 389.662 482.988 387.505 L 482.988 380.176 C 482.988 378.028 484.707 376.298 486.85 376.298 L 556.309 376.298 C 558.455 376.298 560.171 378.028 560.171 380.176 L 560.171 387.505 C 560.171 389.234 558.455 391.382 556.309 391.382 Z" style="" transform="matrix(1, 0, 0, 1, 32.719971, 0)"/>
  <path d="M 583.754 344.834 L 444.828 344.834 C 442.683 344.834 440.965 343.111 440.965 340.956 L 440.965 333.627 C 440.965 331.478 442.683 329.748 444.828 329.748 L 583.327 329.748 C 585.47 329.748 587.182 331.478 587.182 333.627 L 587.182 340.956 C 587.182 342.685 585.898 344.834 583.754 344.834 Z" style="" transform="matrix(1, 0, 0, 1, 32.719971, 0)"/>
  <path d="M 334.628 319.397 C 344.056 319.397 353.49 320.257 362.498 322.414 L 362.498 304.739 C 362.498 279.741 375.36 265.085 401.085 265.085 L 410.52 265.085 L 410.52 200 L 379.648 200 C 313.184 200 287.458 234.047 287.458 295.688 L 287.458 327.587 C 302.465 322.414 318.329 319.397 334.628 319.397 Z" style="" transform="matrix(1, 0, 0, 1, 32.719971, 0)"/>
  <path d="M 612.915 553.865 C 606.05 499.125 564.033 453.438 510 443.091 C 494.993 440.075 479.986 439.641 465.404 442.23 C 464.98 442.23 464.98 441.797 464.554 441.797 C 440.965 392.231 390.367 359.471 335.48 359.471 C 280.595 359.471 230.429 391.37 206.413 440.937 C 205.988 440.937 205.988 441.37 205.555 441.37 C 190.123 439.641 174.684 440.502 159.251 444.387 C 106.075 457.315 65.771 502.144 58.48 556.455 C 57.62 562.054 57.195 567.661 57.195 572.834 C 57.195 589.214 68.347 604.298 84.638 606.455 C 104.791 609.471 122.375 593.953 121.941 574.129 C 121.941 571.105 121.941 567.661 122.375 564.645 C 125.804 537.058 146.814 513.784 174.256 507.316 C 182.832 505.159 191.408 504.732 199.558 506.02 C 225.716 509.471 251.439 496.108 262.584 472.833 C 270.735 455.593 283.597 440.502 300.754 432.313 C 319.615 423.261 341.06 421.973 360.779 428.868 C 381.366 436.198 396.799 451.708 406.232 471.105 C 416.099 490.075 420.812 503.437 441.824 506.02 C 450.398 507.316 474.413 506.882 483.415 506.455 C 500.998 506.455 518.582 512.488 531.01 524.99 C 539.161 533.607 545.164 544.388 547.734 556.455 C 551.596 575.851 546.877 595.248 535.299 609.898 C 527.156 620.245 516.005 628.008 503.568 631.451 C 497.569 633.179 491.563 633.608 485.558 633.608 C 482.13 633.608 477.416 633.608 471.837 633.608 C 454.687 633.608 418.242 633.608 390.8 633.608 C 371.932 633.608 356.925 618.522 356.925 599.553 L 356.925 535.764 L 356.925 473.262 C 356.925 468.088 352.638 463.783 347.491 463.783 L 334.197 463.783 C 308.038 464.21 287.032 493.525 287.032 524.557 C 287.032 555.592 287.032 637.919 287.032 637.919 C 287.032 671.539 314.043 698.692 347.491 698.692 C 347.491 698.692 496.284 698.266 498.428 698.266 C 532.728 694.815 564.46 677.146 585.898 649.986 C 607.342 623.696 617.201 589.214 612.915 553.865 Z" style="" transform="matrix(1, 0, 0, 1, 32.719971, 0)"/>
</svg>