<?xml version="1.0" encoding="utf-8"?>
<svg viewBox="0 0 900 900" xmlns="http://www.w3.org/2000/svg">
  <g id="g10" transform="matrix(3, 0, 0, -3, 0, 900)" style="">
    <g id="g12" transform="scale(0.1)">
      <path d="M 1500 3000 C 671.57 3000 0 2328.43 0 1500 C 0 671.57 671.57 0 1500 0 C 2328.43 0 3000 671.57 3000 1500 C 3000 2328.43 2328.43 3000 1500 3000 Z M 2454.59 545.41 C 2199.61 290.422 1860.6 150 1500 150 C 1139.4 150 800.387 290.422 545.406 545.41 C 290.426 800.391 150 1139.4 150 1500 C 150 1860.6 290.426 2199.61 545.406 2454.59 C 800.387 2709.57 1139.4 2850 1500 2850 C 1860.6 2850 2199.61 2709.57 2454.59 2454.59 C 2709.57 2199.61 2850 1860.6 2850 1500 C 2850 1139.4 2709.57 800.391 2454.59 545.41" style="fill-opacity: 1; fill-rule: nonzero; stroke: none; fill: rgb(255, 255, 255);" id="path14"/>
      <title>Go icon</title>
      <title>Elixir icon</title>
      <title>R icon</title>
      <title>OpenSearch logo</title>
      <desc>Search engine software fork of Elasticsearch</desc>
    </g>
  </g>
  <g transform="matrix(2.18986, 0, 0, 2.141408, 100, 100)" style=""/>
  <g transform="matrix(2.18986, 0, 0, 2.141408, 100, 100)" style=""/>
  <g transform="matrix(2.18986, 0, 0, 2.141408, 100, 100)" style=""/>
  <g transform="matrix(2.18986, 0, 0, 2.141408, 100, 100)" style=""/>
  <g transform="matrix(2.18986, 0, 0, 2.141408, 100, 100)" style=""/>
  <g transform="matrix(2.18986, 0, 0, 2.141408, 100, 100)" style=""/>
  <g transform="matrix(2.18986, 0, 0, 2.141408, 100, 100)" style=""/>
  <g transform="matrix(2.18986, 0, 0, 2.141408, 100, 100)" style=""/>
  <g transform="matrix(2.18986, 0, 0, 2.141408, 100, 100)" style=""/>
  <g transform="matrix(2.18986, 0, 0, 2.141408, 100, 100)" style=""/>
  <g transform="matrix(2.18986, 0, 0, 2.141408, 100, 100)" style=""/>
  <g transform="matrix(2.18986, 0, 0, 2.141408, 100, 100)" style=""/>
  <g transform="matrix(2.18986, 0, 0, 2.141408, 100, 100)" style=""/>
  <g transform="matrix(2.18986, 0, 0, 2.141408, 100, 100)" style=""/>
  <g transform="matrix(2.18986, 0, 0, 2.141408, 100, 100)" style=""/>
  <rect id="_Transparent_Rectangle_" data-name="&lt;Transparent Rectangle&gt;" class="cls-1" width="800" height="800" style="fill: none;" y="60.148" x="43.806"/>
  <path d="M 331.076 729.223 C 331.076 754.024 312.059 774.133 288.591 774.148 C 265.115 774.148 246.083 754.034 246.083 729.223 C 246.083 704.413 265.115 684.299 288.591 684.299 C 312.059 684.312 331.076 704.422 331.076 729.223 Z M 650.962 210.459 C 650.975 230.149 635.876 246.119 617.245 246.119 C 598.606 246.132 583.492 230.159 583.505 210.459 C 583.505 190.769 598.615 174.81 617.245 174.824 C 635.866 174.824 650.962 190.779 650.962 210.459 Z M 279.49 258.131 C 279.464 272.665 268.316 284.436 254.566 284.451 C 240.797 284.451 229.632 272.659 229.619 258.105 C 229.632 243.551 240.797 231.76 254.566 231.76 C 268.335 231.774 279.49 243.576 279.49 258.131 Z M 454.289 296.013 C 544.094 296.013 622.511 330.474 663.208 381.515 C 648.113 335.815 619.867 296.144 582.361 267.968 C 545 239.921 500.199 224.831 454.242 224.818 C 408.292 224.836 363.498 239.925 326.144 267.968 C 288.63 296.141 260.376 335.811 245.273 381.515 C 286.089 330.573 364.506 296.013 454.289 296.013 Z M 454.312 628.012 C 364.53 628.012 286.089 593.526 245.392 542.484 C 260.494 588.188 288.749 627.859 326.263 656.031 C 363.605 684.087 408.389 699.193 454.337 699.232 C 500.297 699.211 545.098 684.113 582.457 656.056 C 619.963 627.881 648.208 588.21 663.304 542.509 C 622.511 593.551 544.094 628.037 454.289 628.037 L 454.312 628.012 Z" style="fill: rgb(255, 255, 255);"/>
  <text style="fill: rgb(255, 255, 255); font-family: Arial, sans-serif; font-size: 43.8px; white-space: pre;" transform="matrix(8.375916, 0, 0, 3.912784, 2948.738525, -48.345772)" x="-318.29" y="147.071">J</text>
  <text style="fill: rgb(255, 255, 255); font-family: Arial, sans-serif; font-size: 43.8px; white-space: pre;" transform="matrix(8.375916, 0, 0, 3.912784, 3103.675781, -49.854622)" x="-318.29" y="147.071">u</text>
</svg>