<?xml version="1.0" encoding="utf-8"?>
<svg viewBox="0 0 900 900" xmlns="http://www.w3.org/2000/svg">
  <g id="g10" transform="matrix(3, 0, 0, -3, 0.000095, 900)" style="">
    <g id="g12" transform="scale(0.1)">
      <path d="M 865.406,1290.7 H 2134.6 c 59.53,0.02 107.74,48.23 107.78,107.78 v 856.11 c -0.04,59.54 -48.25,107.75 -107.78,107.77 H 865.406 c -59.547,0 -107.765,-48.23 -107.773,-107.77 v -856.11 c 0.008,-59.55 48.246,-107.76 107.773,-107.78 z m 44.539,932.28 H 2090.06 v -792.9 H 909.945 Z M 2243.95,1224.92 c -7.1,21.62 -50.95,38.81 -98.06,38.81 H 854.117 c -47.109,0 -90.976,-17.19 -98.058,-38.81 L 594.824,734.219 c -10.738,-32.676 28.688,-96.582 88.266,-96.582 h 1633.82 c 59.59,0 99.02,63.906 88.26,96.582 z m -61.7,-277.342 h -84.36 l -12.18,45.957 h 82 z m -33.88,107.072 13.7,-43.3 H 2081 l -11.48,43.3 z m -68.91,-107.072 h -99.42 l -9.74,45.957 h 96.99 z m 48.74,170.822 14.53,-45.94 h -77.93 l -12.16,45.94 z m -65.64,-107.05 h -96.03 l -9.17,43.3 h 93.73 z m -100.72,-63.772 h -99.61 l -7.32,45.957 h 97.18 z m 72.37,170.822 12.16,-45.94 h -92.8 l -9.73,45.94 z m -85.89,-107.05 h -96.23 l -6.89,43.3 h 93.93 z m -22.69,107.05 9.73,-45.94 h -92.98 l -7.31,45.94 z m -81.45,-170.822 h -99.75 l -4.88,45.957 h 97.34 z m -10.14,63.772 h -96.37 l -4.6,43.3 h 94.09 z m -17.01,107.05 7.31,-45.94 h -93.14 l -4.87,45.94 z m -90.51,-170.822 h -99.86 l -2.44,45.957 h 97.43 z m -14.74,-204.961 h -423.55 l 33,115.84 h 357.55 z m 7.98,268.733 h -96.49 l -2.29,43.3 h 94.19 z m -11.34,107.05 4.86,-45.94 h -93.24 l -2.44,45.94 z m -199.51,0 h 90.86 l 2.43,-45.94 h -93.29 z m 0,-63.75 h 94.23 l 2.3,-43.3 h -96.53 z m 0,-61.115 h 97.48 l 2.42,-45.957 h -99.9 z M 1400.25,1118.4 h 90.86 v -45.94 h -93.3 z m -3.39,-63.75 h 94.25 l -0.01,-43.3 h -96.53 z m -3.23,-61.115 h 97.47 v -45.957 h -99.91 z M 1291.6,1118.4 h 90.81 l -2.44,-45.94 h -93.24 z m -6.76,-63.75 h 94.19 l -2.3,-43.3 h -96.48 z m 90.95,-61.115 -2.44,-45.957 h -99.85 l 4.86,45.957 z M 1182.98,1118.4 h 90.71 l -4.87,-45.94 h -93.14 z m -10.13,-63.75 h 94.08 l -4.59,-43.3 h -96.38 z m 87.6,-61.115 -4.87,-45.957 h -99.76 l 7.31,45.957 z M 1074.38,1118.4 h 90.56 l -7.3,-45.94 h -93 z m 80.42,-63.75 -6.88,-43.3 h -96.23 l 9.18,43.3 z m -9.71,-61.115 -7.31,-45.957 h -99.6 l 9.73,45.957 z M 965.813,1118.4 h 90.357 l -9.73,-45.94 h -92.803 z m 76.847,-63.75 -9.18,-43.3 h -96.039 l 11.481,43.3 z m -12.95,-61.115 -9.75,-45.957 h -99.413 l 12.18,45.957 z M 871.801,1118.4 h 75.578 l -12.176,-45.94 h -77.937 z m -20.164,-63.75 h 78.855 l -11.476,-43.3 H 837.93 Z m -19.34,-61.115 h 81.996 l -12.18,-45.957 H 817.758 Z M 2316.91,686.797 H 683.09 c -20.805,0 -35.766,19.394 -39.766,30.703 H 2356.68 c -3.98,-11.309 -18.95,-30.703 -39.77,-30.703 z M 1500,3000 C 671.57,3000 0,2328.43 0,1500 0,671.57 671.57,0 1500,0 c 828.43,0 1500,671.57 1500,1500 0,828.43 -671.57,1500 -1500,1500 z M 2454.59,545.41 C 2199.61,290.422 1860.6,150 1500,150 1139.4,150 800.387,290.422 545.406,545.41 290.426,800.391 150,1139.4 150,1500 c 0,360.6 140.426,699.61 395.406,954.59 C 800.387,2709.57 1139.4,2850 1500,2850 c 360.6,0 699.61,-140.43 954.59,-395.41 C 2709.57,2199.61 2850,1860.6 2850,1500 2850,1139.4 2709.57,800.391 2454.59,545.41" style="fill:#000000;fill-opacity:1;fill-rule:nonzero;stroke:none" id="path14"/>
    </g>
  </g>
</svg>