<?xml version="1.0" encoding="utf-8"?>
<svg viewBox="0 0 900 900" xmlns="http://www.w3.org/2000/svg">
  <g id="g10" transform="matrix(3, 0, 0, -3, 0, 900)" style="">
    <g id="g12" transform="scale(0.1)">
      <path d="M 1500 3000 C 671.57 3000 0 2328.43 0 1500 C 0 671.57 671.57 0 1500 0 C 2328.43 0 3000 671.57 3000 1500 C 3000 2328.43 2328.43 3000 1500 3000 Z M 2454.59 545.41 C 2199.61 290.422 1860.6 150 1500 150 C 1139.4 150 800.387 290.422 545.406 545.41 C 290.426 800.391 150 1139.4 150 1500 C 150 1860.6 290.426 2199.61 545.406 2454.59 C 800.387 2709.57 1139.4 2850 1500 2850 C 1860.6 2850 2199.61 2709.57 2454.59 2454.59 C 2709.57 2199.61 2850 1860.6 2850 1500 C 2850 1139.4 2709.57 800.391 2454.59 545.41" style="fill-opacity: 1; fill-rule: nonzero; stroke: none;" id="path14"/>
    </g>
  </g>
  <path d="M 449.47 900 C 201.039 900 -1.059 698.137 -1.059 450 C -1.059 201.863 201.039 0 449.47 0 C 697.903 0 900 201.863 900 450 C 900 698.137 697.903 900 449.47 900 Z M 462.8 34.848 C 228.209 34.848 24.003 215.55 24.003 450 C 24.003 684.45 214.878 875.212 449.47 875.212 C 684.063 875.212 879.062 701.912 879.062 467.424 C 879.062 232.937 697.392 34.848 462.8 34.848 Z M 298.941 757.387 C 298.941 757.387 336.022 759.976 383.723 755.812 C 403.06 754.126 476.391 746.999 531.257 735.112 C 531.257 735.112 598.143 720.975 633.899 707.924 C 671.323 694.276 691.684 682.687 700.86 666.299 C 700.444 662.925 703.666 651 686.413 643.838 C 642.277 625.538 591.09 628.837 489.814 626.7 C 377.504 622.874 340.118 604.276 320.248 589.312 C 301.177 574.125 310.769 532.087 392.558 495.074 C 433.735 475.351 595.223 438.975 595.223 438.975 C 540.851 412.388 439.423 365.662 418.569 355.574 C 400.293 346.725 371.021 333.412 364.689 317.287 C 357.484 301.799 381.675 288.488 395.173 284.662 C 438.664 272.25 500.052 264.562 555.942 263.662 C 584.038 263.212 588.589 261.45 588.589 261.45 C 627.339 255.076 652.857 228.863 642.203 187.35 C 632.647 144.975 582.332 120.039 534.518 128.663 C 489.473 136.801 380.954 167.963 380.954 167.963 C 515.143 166.799 537.59 169.013 547.599 182.887 C 553.514 191.063 544.907 202.313 509.113 208.088 C 470.173 214.388 389.183 221.964 389.183 221.964 C 311.491 226.537 256.776 226.837 240.358 261.188 C 229.627 283.65 251.81 303.525 261.517 315.937 C 302.543 361.087 361.845 385.425 399.988 403.35 C 414.359 410.101 456.486 422.85 456.486 422.85 C 332.685 416.1 243.43 453.713 191.028 496.988 C 131.802 551.175 158.002 615.788 279.376 655.538 C 351.075 679.013 386.604 690.075 493.531 680.55 C 556.51 677.175 566.445 679.201 567.05 684.3 C 567.923 691.5 497.094 709.387 477.757 714.899 C 428.541 728.925 299.585 757.238 298.941 757.387 Z" style=""/>
</svg>