<?xml version="1.0" encoding="utf-8"?>
<svg viewBox="0 0 900 900" xmlns="http://www.w3.org/2000/svg">
  <g id="g10" transform="matrix(3, 0, 0, -3, 0, 900)" style="">
    <g id="g12" transform="scale(0.1)">
      <path d="M 1500 3000 C 671.57 3000 0 2328.43 0 1500 C 0 671.57 671.57 0 1500 0 C 2328.43 0 3000 671.57 3000 1500 C 3000 2328.43 2328.43 3000 1500 3000 Z M 2454.59 545.41 C 2199.61 290.422 1860.6 150 1500 150 C 1139.4 150 800.387 290.422 545.406 545.41 C 290.426 800.391 150 1139.4 150 1500 C 150 1860.6 290.426 2199.61 545.406 2454.59 C 800.387 2709.57 1139.4 2850 1500 2850 C 1860.6 2850 2199.61 2709.57 2454.59 2454.59 C 2709.57 2199.61 2850 1860.6 2850 1500 C 2850 1139.4 2709.57 800.391 2454.59 545.41" style="fill-opacity: 1; fill-rule: nonzero; stroke: none;" id="path14"/>
      <title>Go icon</title>
      <title>Elixir icon</title>
      <title>R icon</title>
      <title>OpenSearch logo</title>
      <desc>Search engine software fork of Elasticsearch</desc>
      <title>OpenSearch logo</title>
      <desc>Search engine software fork of Elasticsearch</desc>
      <g transform="matrix(3.333333, 0, 0, -3.333333, -3594.97168, 2466.221924)"/>
      <g transform="matrix(3.333333, 0, 0, -3.333333, -3594.97168, 2466.221924)"/>
      <g transform="matrix(3.333333, 0, 0, -3.333333, -3594.97168, 2466.221924)"/>
      <g transform="matrix(3.333333, 0, 0, -3.333333, -3594.97168, 2466.221924)"/>
      <g transform="matrix(3.333333, 0, 0, -3.333333, -3594.97168, 2466.221924)"/>
      <g transform="matrix(3.333333, 0, 0, -3.333333, -3594.97168, 2466.221924)"/>
      <g transform="matrix(3.333333, 0, 0, -3.333333, -3594.97168, 2466.221924)"/>
      <g transform="matrix(3.333333, 0, 0, -3.333333, -3594.97168, 2466.221924)"/>
      <g transform="matrix(3.333333, 0, 0, -3.333333, -3594.97168, 2466.221924)"/>
      <g transform="matrix(3.333333, 0, 0, -3.333333, -3594.97168, 2466.221924)"/>
      <g transform="matrix(3.333333, 0, 0, -3.333333, -3594.97168, 2466.221924)"/>
      <g transform="matrix(3.333333, 0, 0, -3.333333, -3594.97168, 2466.221924)"/>
      <g transform="matrix(3.333333, 0, 0, -3.333333, -3594.97168, 2466.221924)"/>
      <g transform="matrix(3.333333, 0, 0, -3.333333, -3594.97168, 2466.221924)"/>
      <g transform="matrix(3.333333, 0, 0, -3.333333, -3594.97168, 2466.221924)"/>
      <title>redash-logo</title>
      <desc>Created with Sketch.</desc>
      <g id="g-1" style="fill-rule:nonzero;clip-rule:nonzero;stroke:#000000;stroke-miterlimit:4;" transform="matrix(3.333333, 0, 0, -3.333333, -4120.10498, 2211.285156)"/>
    </g>
  </g>
  <g transform="matrix(2.18986, 0, 0, 2.141408, 100, 100)" style=""/>
  <g transform="matrix(2.18986, 0, 0, 2.141408, 100, 100)" style=""/>
  <g transform="matrix(2.18986, 0, 0, 2.141408, 100, 100)" style=""/>
  <g transform="matrix(2.18986, 0, 0, 2.141408, 100, 100)" style=""/>
  <g transform="matrix(2.18986, 0, 0, 2.141408, 100, 100)" style=""/>
  <g transform="matrix(2.18986, 0, 0, 2.141408, 100, 100)" style=""/>
  <g transform="matrix(2.18986, 0, 0, 2.141408, 100, 100)" style=""/>
  <g transform="matrix(2.18986, 0, 0, 2.141408, 100, 100)" style=""/>
  <g transform="matrix(2.18986, 0, 0, 2.141408, 100, 100)" style=""/>
  <g transform="matrix(2.18986, 0, 0, 2.141408, 100, 100)" style=""/>
  <g transform="matrix(2.18986, 0, 0, 2.141408, 100, 100)" style=""/>
  <g transform="matrix(2.18986, 0, 0, 2.141408, 100, 100)" style=""/>
  <g transform="matrix(2.18986, 0, 0, 2.141408, 100, 100)" style=""/>
  <g transform="matrix(2.18986, 0, 0, 2.141408, 100, 100)" style=""/>
  <g transform="matrix(2.18986, 0, 0, 2.141408, 100, 100)" style=""/>
  <rect id="_Transparent_Rectangle_" data-name="&lt;Transparent Rectangle&gt;" class="cls-1" width="800" height="800" style="fill: none;" y="60.148" x="43.806"/>
  <path d="M 595.993 200 L 304.007 200 C 247.434 200 200 247.451 200 304.023 L 200 595.993 C 200 652.567 247.434 700 304.007 700 L 595.993 700 C 652.565 700 700 652.567 700 595.993 L 700 304.023 C 700 247.451 652.565 200 595.993 200 Z M 322.26 285.769 C 358.767 285.769 387.948 314.968 387.948 351.458 C 387.948 387.964 360.576 418.973 322.26 418.973 C 285.77 418.973 256.571 389.774 256.571 353.285 C 256.571 316.794 285.77 285.769 322.26 285.769 Z M 325.914 654.391 L 240.144 568.622 L 325.914 482.853 L 411.682 568.622 L 325.914 654.391 Z M 577.742 616.058 L 501.088 616.058 L 575.913 493.797 L 652.565 616.058 L 577.742 616.058 Z M 610.594 371.537 L 630.656 435.401 L 575.913 395.256 L 521.169 435.401 L 541.232 371.537 L 486.49 331.394 L 554.023 331.394 L 574.086 267.515 L 594.168 331.394 L 661.683 331.394 L 610.594 371.537 Z" style=""/>
</svg>