<?xml version="1.0" encoding="utf-8"?>
<svg viewBox="0 0 900 900" xmlns="http://www.w3.org/2000/svg">
  <g id="g10" transform="matrix(3, 0, 0, -3, 0, 900)" style="">
    <g id="g12" transform="scale(0.1)">
      <path d="M 1500 3000 C 671.57 3000 0 2328.43 0 1500 C 0 671.57 671.57 0 1500 0 C 2328.43 0 3000 671.57 3000 1500 C 3000 2328.43 2328.43 3000 1500 3000 Z M 2454.59 545.41 C 2199.61 290.422 1860.6 150 1500 150 C 1139.4 150 800.387 290.422 545.406 545.41 C 290.426 800.391 150 1139.4 150 1500 C 150 1860.6 290.426 2199.61 545.406 2454.59 C 800.387 2709.57 1139.4 2850 1500 2850 C 1860.6 2850 2199.61 2709.57 2454.59 2454.59 C 2709.57 2199.61 2850 1860.6 2850 1500 C 2850 1139.4 2709.57 800.391 2454.59 545.41" style="fill-opacity: 1; fill-rule: nonzero; stroke: none;" id="path14"/>
      <title>Go icon</title>
      <title>Elixir icon</title>
      <title>R icon</title>
      <title>OpenSearch logo</title>
      <desc>Search engine software fork of Elasticsearch</desc>
      <title>OpenSearch logo</title>
      <desc>Search engine software fork of Elasticsearch</desc>
      <g transform="matrix(3.333333, 0, 0, -3.333333, -3594.97168, 2466.221924)"/>
      <g transform="matrix(3.333333, 0, 0, -3.333333, -3594.97168, 2466.221924)"/>
      <g transform="matrix(3.333333, 0, 0, -3.333333, -3594.97168, 2466.221924)"/>
      <g transform="matrix(3.333333, 0, 0, -3.333333, -3594.97168, 2466.221924)"/>
      <g transform="matrix(3.333333, 0, 0, -3.333333, -3594.97168, 2466.221924)"/>
      <g transform="matrix(3.333333, 0, 0, -3.333333, -3594.97168, 2466.221924)"/>
      <g transform="matrix(3.333333, 0, 0, -3.333333, -3594.97168, 2466.221924)"/>
      <g transform="matrix(3.333333, 0, 0, -3.333333, -3594.97168, 2466.221924)"/>
      <g transform="matrix(3.333333, 0, 0, -3.333333, -3594.97168, 2466.221924)"/>
      <g transform="matrix(3.333333, 0, 0, -3.333333, -3594.97168, 2466.221924)"/>
      <g transform="matrix(3.333333, 0, 0, -3.333333, -3594.97168, 2466.221924)"/>
      <g transform="matrix(3.333333, 0, 0, -3.333333, -3594.97168, 2466.221924)"/>
      <g transform="matrix(3.333333, 0, 0, -3.333333, -3594.97168, 2466.221924)"/>
      <g transform="matrix(3.333333, 0, 0, -3.333333, -3594.97168, 2466.221924)"/>
      <g transform="matrix(3.333333, 0, 0, -3.333333, -3594.97168, 2466.221924)"/>
      <title>redash-logo</title>
      <desc>Created with Sketch.</desc>
      <g id="g-1" style="fill-rule:nonzero;clip-rule:nonzero;stroke:#000000;stroke-miterlimit:4;" transform="matrix(3.333333, 0, 0, -3.333333, -4120.10498, 2211.285156)"/>
    </g>
  </g>
  <g transform="matrix(2.18986, 0, 0, 2.141408, 100, 100)" style=""/>
  <g transform="matrix(2.18986, 0, 0, 2.141408, 100, 100)" style=""/>
  <g transform="matrix(2.18986, 0, 0, 2.141408, 100, 100)" style=""/>
  <g transform="matrix(2.18986, 0, 0, 2.141408, 100, 100)" style=""/>
  <g transform="matrix(2.18986, 0, 0, 2.141408, 100, 100)" style=""/>
  <g transform="matrix(2.18986, 0, 0, 2.141408, 100, 100)" style=""/>
  <g transform="matrix(2.18986, 0, 0, 2.141408, 100, 100)" style=""/>
  <g transform="matrix(2.18986, 0, 0, 2.141408, 100, 100)" style=""/>
  <g transform="matrix(2.18986, 0, 0, 2.141408, 100, 100)" style=""/>
  <g transform="matrix(2.18986, 0, 0, 2.141408, 100, 100)" style=""/>
  <g transform="matrix(2.18986, 0, 0, 2.141408, 100, 100)" style=""/>
  <g transform="matrix(2.18986, 0, 0, 2.141408, 100, 100)" style=""/>
  <g transform="matrix(2.18986, 0, 0, 2.141408, 100, 100)" style=""/>
  <g transform="matrix(2.18986, 0, 0, 2.141408, 100, 100)" style=""/>
  <g transform="matrix(2.18986, 0, 0, 2.141408, 100, 100)" style=""/>
  <rect id="_Transparent_Rectangle_" data-name="&lt;Transparent Rectangle&gt;" class="cls-1" width="800" height="800" style="fill: none;" y="60.148" x="43.806"/>
  <path d="M 718.335 194.751 C 689.872 173.136 655.452 181.829 621.446 207.534 C 616.204 211.533 611.17 215.728 606.36 220.103 C 548.193 272.663 494.219 370.004 477.452 444.344 C 483.988 455.622 489.089 470.024 492.455 481.02 C 494.142 486.49 495.65 491.997 496.978 497.537 C 496.978 497.537 496.454 495.868 494.33 490.582 L 492.951 487.152 C 492.667 486.519 492.363 485.893 492.042 485.273 C 488.235 477.753 477.755 461.895 473.121 454.987 C 469.178 464.925 465.675 474.206 462.751 482.617 C 476.1 503.387 484.208 539.007 484.208 539.007 C 484.208 539.007 483.518 536.68 480.153 528.622 C 477.204 521.503 462.393 499.393 458.862 494.223 C 452.878 513.114 450.478 525.849 452.628 528.95 C 456.821 534.964 460.794 545.35 464.267 556.816 C 472.156 582.661 477.643 614.145 477.643 614.145 L 478.113 619.407 C 477.076 640.936 477.592 662.498 479.658 683.973 C 482.277 710.899 487.187 734.018 493.447 746.4 L 497.724 744.427 C 488.511 720.038 484.76 688.061 486.414 651.22 C 488.897 594.877 504.121 526.931 532.225 456.115 C 579.745 349.21 645.661 263.43 705.977 222.454 C 651.012 264.744 576.573 401.722 554.288 452.426 C 529.356 509.19 511.678 562.479 501.032 613.534 C 519.4 565.674 578.835 545.114 578.835 545.114 C 578.835 545.114 607.987 514.477 642.049 470.729 C 621.638 474.698 588.129 481.489 576.904 485.508 C 560.356 491.404 555.888 493.427 555.888 493.427 C 555.888 493.427 609.531 465.606 655.534 453.014 C 718.802 368.124 787.753 247.523 718.335 194.751 M 206.093 207.51 C 178.177 207.6 155.574 226.865 155.483 250.648 L 155.483 640.858 C 155.574 664.635 178.184 683.884 206.093 683.949 L 465.84 683.949 C 463.893 662.791 463.415 641.553 464.405 620.348 C 464.24 618.891 464.103 617.034 463.966 615.648 C 460.601 596.867 456.248 578.224 450.919 559.777 C 447.582 548.734 443.335 538.678 440.743 534.942 C 437.543 530.314 438.039 527.658 438.067 524.793 C 438.067 521.973 438.481 519.035 439.088 515.722 C 440.721 507.446 442.875 499.25 445.542 491.17 L 451.525 490.511 C 451.059 489.691 451.141 488.985 450.671 488.233 L 449.54 479.282 C 452.843 469.872 456.354 460.522 460.076 451.227 L 465.593 450.781 C 465.371 450.405 465.315 449.887 465.095 449.535 L 463.91 442.111 C 481.286 365.046 535.259 267.235 596.293 212.068 C 598.113 210.447 599.961 209.061 601.754 207.51 L 206.093 207.51 Z" style=""/>
</svg>