<?xml version="1.0" encoding="utf-8"?>
<svg viewBox="0 0 900 900" xmlns="http://www.w3.org/2000/svg">
  <path d="M 893.808 438.871 L 856.029 415.48 C 855.714 411.801 855.362 408.129 854.968 404.463 L 887.429 374.198 C 894.407 367.582 892.084 355.945 883.099 352.514 L 841.605 336.983 C 840.58 333.392 839.487 329.82 838.337 326.272 L 864.231 290.305 C 869.895 282.469 865.313 271.407 855.766 269.875 L 812.028 262.773 C 810.321 259.465 808.566 256.187 806.753 252.937 L 825.128 212.572 C 827.024 208.465 826.61 203.685 824.103 199.959 C 821.596 196.242 817.346 194.036 812.827 194.188 L 768.406 195.743 C 766.131 192.858 763.788 190.024 761.387 187.239 L 771.596 143.981 C 773.793 134.578 765.353 126.144 755.959 128.337 L 712.715 138.549 C 709.894 136.18 707.045 133.84 704.171 131.529 L 705.727 87.092 C 706.194 77.379 696.159 70.658 687.353 74.786 L 646.998 93.209 C 643.735 91.421 640.468 89.638 637.167 87.931 L 630.027 44.139 C 628.414 34.656 617.453 30.109 609.603 35.675 L 573.61 61.571 C 570.064 60.433 566.495 59.36 562.907 58.346 L 547.38 16.836 C 543.949 7.851 532.317 5.528 525.701 12.508 L 495.446 45.014 C 491.778 44.603 488.11 44.252 484.433 43.952 L 461.045 6.168 C 455.975 -2.056 444.027 -2.056 438.951 6.168 L 415.569 43.952 C 411.886 44.257 408.202 44.638 404.556 45.014 L 374.259 12.508 C 367.675 5.428 355.947 7.775 352.584 16.836 L 337.057 58.346 C 333.447 59.372 329.917 60.474 326.349 61.571 L 290.399 35.675 C 282.548 30.109 271.588 34.656 269.974 44.139 L 262.834 87.931 C 259.529 89.638 256.25 91.397 253.003 93.209 L 212.644 74.786 C 203.854 70.762 193.901 77.425 194.269 87.092 L 195.83 131.529 C 192.94 133.804 190.097 136.162 187.286 138.549 L 144.042 128.337 C 134.643 126.144 126.209 134.578 128.401 143.981 L 138.578 187.239 C 136.224 190.048 133.871 192.898 131.59 195.743 L 87.175 194.188 C 77.511 193.818 70.849 203.773 74.874 212.572 L 93.286 252.937 C 91.473 256.187 89.712 259.465 88.01 262.773 L 44.273 269.875 C 34.788 271.488 30.248 282.458 35.807 290.305 L 61.701 326.272 C 60.56 329.838 59.5 333.375 58.432 336.983 L 16.939 352.514 C 7.954 355.945 5.632 367.582 12.609 374.198 L 45.071 404.463 C 44.656 408.129 44.304 411.801 44.01 415.48 L 6.23 438.871 C -2.077 443.897 -2.077 455.95 6.23 460.976 L 44.01 484.368 C 44.309 488.052 44.692 491.735 45.071 495.383 L 12.609 525.684 C 5.537 532.271 7.875 544.008 16.939 547.369 L 58.432 562.906 C 59.458 566.513 60.56 570.08 61.701 573.609 L 35.807 609.577 C 30.086 617.425 34.715 628.539 44.309 630.006 L 88.047 637.109 C 89.754 640.411 91.498 643.679 93.322 646.946 L 74.91 687.317 C 70.886 696.109 77.549 706.064 87.211 705.693 L 131.59 704.139 C 133.907 707.025 136.224 709.875 138.615 712.685 L 128.442 755.978 C 126.23 765.38 134.689 773.821 144.08 771.586 L 187.323 761.41 C 190.135 763.802 192.983 766.119 195.867 768.395 L 194.312 812.825 C 193.875 822.527 203.895 829.213 212.686 825.096 L 253.04 806.713 C 256.303 808.538 259.571 810.285 262.871 811.993 L 270.012 855.742 C 271.598 865.244 282.574 869.813 290.435 864.247 L 326.386 838.346 C 329.959 839.489 333.485 840.586 337.095 841.613 L 352.621 883.122 C 355.947 892.225 367.732 894.577 374.3 887.451 L 404.592 854.98 C 408.239 855.402 411.922 855.742 415.605 856.082 L 438.992 893.867 C 444.089 902.044 455.986 902.044 461.088 893.867 L 484.469 856.082 C 488.153 855.742 491.837 855.402 495.483 854.98 L 525.738 887.451 C 532.353 894.431 543.986 892.108 547.418 883.122 L 562.944 841.613 C 566.554 840.586 570.122 839.489 573.653 838.346 L 609.603 864.247 C 617.447 869.972 628.561 865.338 630.027 855.742 L 637.167 811.993 C 640.468 810.285 643.735 808.497 646.998 806.713 L 687.353 825.096 C 696.127 829.055 706.021 822.456 705.727 812.825 L 704.171 768.395 C 707.056 766.119 709.904 763.802 712.678 761.41 L 755.917 771.586 C 765.296 773.768 773.719 765.363 771.559 755.978 L 761.387 712.685 C 763.74 709.875 766.094 707.025 768.37 704.139 L 812.79 705.693 C 822.5 706.157 829.221 696.121 825.091 687.317 L 806.716 646.946 C 808.497 643.679 810.284 640.411 811.992 637.109 L 855.729 630.006 C 865.208 628.394 869.753 617.425 864.194 609.577 L 838.301 573.609 L 841.569 562.906 L 883.063 547.369 C 892.122 544.008 894.465 532.271 887.386 525.684 L 854.93 495.383 C 855.309 491.735 855.687 488.052 855.992 484.368 L 893.765 460.976 C 902.078 455.95 902.078 443.897 893.765 438.871 L 893.808 438.871 Z M 640.997 752.294 C 620.847 747.982 612.923 723.466 626.732 708.163 C 633.138 701.065 642.847 697.922 652.2 699.921 C 672.351 704.25 680.264 728.774 666.44 744.072 C 660.024 751.168 650.314 754.301 640.961 752.294 L 640.997 752.294 Z M 628.167 665.48 C 614.994 662.641 602.026 671.052 599.241 684.238 L 585.837 746.821 C 544.454 765.621 498.52 776.067 450.116 776.067 C 402.249 776.137 354.948 765.715 311.542 745.531 L 298.143 682.947 C 295.353 669.762 282.375 661.363 269.213 664.225 L 213.973 676.072 C 203.711 665.504 194.175 654.248 185.426 642.388 L 454.215 642.388 C 457.251 642.388 459.301 641.853 459.301 639.085 L 459.301 543.954 C 459.301 541.18 457.289 540.646 454.215 540.646 L 375.588 540.646 L 375.588 480.345 L 460.63 480.345 C 468.376 480.345 502.125 482.544 512.906 525.684 C 516.285 538.94 523.688 582.121 528.774 595.946 C 533.824 611.437 554.4 642.388 576.348 642.388 L 710.282 642.388 C 711.917 642.364 713.54 642.2 715.143 641.895 C 705.858 654.518 695.681 666.459 684.699 677.633 L 628.167 665.48 Z M 256.382 751.004 C 236.231 755.327 218.955 736.211 225.281 716.591 C 228.224 707.488 235.789 700.637 245.142 698.632 C 265.293 694.303 282.569 713.424 276.243 733.044 C 273.306 742.147 265.735 748.992 256.382 751.004 Z M 154.409 337.358 C 163.358 355.921 148.866 377.219 128.317 375.695 C 118.18 374.937 109.343 368.503 105.513 359.083 C 97.747 339.991 113.551 319.65 133.96 322.471 C 142.839 323.697 150.516 329.287 154.409 337.358 Z M 123.088 411.677 L 180.639 386.082 C 192.956 380.615 198.499 366.192 193.019 353.88 L 181.175 327.07 L 227.792 327.07 L 227.792 537.233 L 133.754 537.233 C 122.158 496.445 118.548 453.797 123.125 411.642 L 123.088 411.677 Z M 375.63 391.284 L 375.63 329.345 L 486.635 329.345 C 492.366 329.345 527.103 335.991 527.103 361.969 C 527.103 383.542 500.454 391.284 478.548 391.284 L 375.63 391.284 Z M 779.036 447.035 C 779.036 455.24 778.737 463.405 778.127 471.458 L 744.378 471.458 C 741 471.458 739.634 473.658 739.634 477.002 L 739.634 492.492 C 739.634 528.992 719.057 536.928 701.024 538.94 C 683.863 540.876 664.843 531.76 662.488 521.244 C 652.353 464.279 635.497 452.086 608.846 431.087 C 641.912 410.083 676.307 379.095 676.307 337.627 C 676.307 292.851 645.595 264.632 624.672 250.772 C 595.327 231.405 562.829 227.534 554.059 227.534 L 205.052 227.534 C 253.286 173.583 317.968 137.06 389.066 123.628 L 430.223 166.809 C 439.497 176.568 454.94 176.926 464.655 167.606 L 510.668 123.552 C 605.626 141.366 687.956 200.024 735.835 283.964 L 704.324 355.17 C 698.885 367.482 704.419 381.876 716.703 387.377 L 777.37 414.341 C 778.432 425.121 778.962 435.985 778.962 447.035 L 779.036 447.035 Z M 430.26 86.939 C 445.151 72.734 469.831 79.978 474.686 99.985 C 476.94 109.263 474.071 119.048 467.161 125.64 C 451.561 139.101 427.239 130.626 423.382 110.378 C 421.775 101.914 424.333 93.193 430.26 86.939 Z M 742.97 338.654 C 748.933 325.135 764.729 319.057 778.206 325.057 C 797.054 333.375 799.833 358.989 783.203 371.161 C 766.573 383.33 743.012 372.924 740.789 352.437 C 740.28 347.746 741.021 343 742.933 338.689 L 742.97 338.654 Z" style="fill: rgb(255, 255, 255);"/>
</svg>