<?xml version="1.0" encoding="utf-8"?>
<svg viewBox="0 0 500 500" xmlns="http://www.w3.org/2000/svg">
  <defs>
    <linearGradient gradientUnits="userSpaceOnUse" x1="250" y1="0" x2="250" y2="500" id="gradient-1">
      <stop offset="0" style="stop-color: rgb(169, 25, 90);"/>
      <stop offset="1" style="stop-color: rgb(47, 54, 254);"/>
    </linearGradient>
    <linearGradient gradientUnits="userSpaceOnUse" x1="250" y1="0" x2="250" y2="500" id="gradient-0">
      <stop offset="0" style="stop-color: rgba(83, 70, 220, 1)"/>
      <stop offset="1" style="stop-color: rgba(41, 30, 158, 1)"/>
    </linearGradient>
  </defs>
  <path fill-rule="evenodd" d="M 250.001 0 C 111.929 0 0 111.928 0 249.999 C 0 388.071 111.929 500 250.001 500 C 388.072 500 500 388.071 500 249.999 C 500 111.928 388.072 0 250.001 0 Z M 125.001 134.615 L 375.001 134.615 C 380.311 134.615 384.615 138.92 384.615 144.23 L 384.615 307.693 L 394.231 307.693 C 399.541 307.693 403.847 311.998 403.847 317.308 L 403.847 355.77 C 403.847 361.08 399.541 365.385 394.231 365.385 L 105.77 365.385 C 100.459 365.385 96.154 361.08 96.154 355.77 L 96.154 330.769 C 96.16 330.55 96.172 330.333 96.193 330.116 C 96.424 326.557 96.482 324 96.769 321.327 C 97.039 318.635 97.539 314.616 101.193 311.307 C 104.846 307.981 108.692 307.904 111.443 307.693 L 115.384 307.693 L 115.384 144.23 C 115.384 138.92 119.691 134.615 125.001 134.615 Z M 134.577 153.846 L 134.577 307.693 L 200.578 307.693 C 200.97 307.603 201.368 307.539 201.77 307.501 C 203.097 307.487 204.413 307.749 205.636 308.269 C 205.804 308.334 205.97 308.405 206.134 308.481 C 206.219 308.543 206.303 308.608 206.385 308.673 C 206.423 308.673 206.462 308.673 206.501 308.673 C 206.743 308.81 206.982 308.958 207.212 309.115 C 210.042 310.846 211.779 313.913 211.808 317.231 L 288.193 317.231 C 288.208 312.304 291.945 308.185 296.847 307.693 C 297.486 307.628 298.131 307.628 298.769 307.693 L 365.385 307.693 L 365.385 153.846 L 134.577 153.846 Z M 115.654 326.922 C 115.578 328.346 115.539 329.211 115.384 331.384 L 115.384 346.154 L 384.615 346.154 L 384.615 326.922 L 307.731 326.922 C 307.731 332.249 303.403 336.559 298.077 336.539 L 201.924 336.539 C 196.613 336.539 192.307 332.234 192.307 326.922 L 115.634 326.922 L 115.654 326.922 Z" style="stroke: url(#gradient-0); fill: url(#gradient-1);"/>
</svg>